<?plantuml 1.2026.2?><svg xmlns="http://www.w3.org/2000/svg" xmlns:xlink="http://www.w3.org/1999/xlink" contentStyleType="text/css" data-diagram-type="CLASS" height="318px" preserveAspectRatio="none" style="width:679px;height:318px;background:#F9F9F9;" version="1.1" viewBox="0 0 679 318" width="679px" zoomAndPan="magnify"><defs/><g><rect fill="#F9F9F9" height="318" style="stroke:none;stroke-width:1;" width="679" x="0" y="0"/><!--class ApiClient--><g class="entity" data-qualified-name="ApiClient" data-source-line="20" id="ent0002"><rect fill="#F1F1F1" height="304.1016" rx="3" ry="3" style="stroke:#181818;stroke-width:0.5;" width="488.4976" x="7" y="7"/><ellipse cx="216.5444" cy="36.2227" fill="#ADD1B2" rx="10" ry="10" style="stroke:#181818;stroke-width:1;"/><path d="M218.3726,40.4727 Q217.9663,40.6758 217.5132,40.7852 Q217.0601,40.8945 216.5757,40.8945 Q214.7944,40.8945 213.8569,39.7383 Q212.9351,38.5664 212.9351,36.3633 Q212.9351,34.1445 213.8569,32.9883 Q214.7944,31.8164 216.5757,31.8164 Q217.0601,31.8164 217.5132,31.9258 Q217.9819,32.0195 218.3726,32.2383 L218.3726,34.1602 Q217.9351,33.7539 217.5132,33.5664 Q217.0913,33.3633 216.6538,33.3633 Q215.7007,33.3633 215.2163,34.1289 Q214.7319,34.8789 214.7319,36.3633 Q214.7319,37.832 215.2163,38.582 Q215.7007,39.332 216.6538,39.332 Q217.0913,39.332 217.5132,39.1445 Q217.9351,38.957 218.3726,38.5508 L218.3726,40.4727 Z " fill="#000000"/><text fill="#000000" font-family="sans-serif" font-size="10" font-style="italic" lengthAdjust="spacing" textLength="45.1123" x="243.6926" y="27.2822">&#171;sealed&#187;</text><text fill="#000000" font-family="sans-serif" font-size="11" lengthAdjust="spacing" textLength="49.4087" x="241.5444" y="51.8511">ApiClient</text><line style="stroke:#181818;stroke-width:0.5;" x1="8" x2="494.4976" y1="65.4453" y2="65.4453"/><text fill="#000000" font-family="sans-serif" font-size="11" lengthAdjust="spacing" textLength="181.0649" x="19" y="85.6558">+ApiClient(httpClient:HttpClient)</text><text fill="#000000" font-family="sans-serif" font-size="11" lengthAdjust="spacing" textLength="54.6777" x="19" y="110.4604">+&#171;async&#187;</text><text fill="#000000" font-family="sans-serif" font-size="11" lengthAdjust="spacing" textLength="3.4966" x="73.6777" y="110.4604">&#160;</text><text fill="#000000" font-family="sans-serif" font-size="11" lengthAdjust="spacing" textLength="314.1284" x="77.1743" y="110.4604">GetSessionsAsync(cancellationToken:CancellationToken)</text><text fill="#000000" font-family="sans-serif" font-size="11" lengthAdjust="spacing" textLength="3.4966" x="391.3027" y="110.4604">&#160;</text><text fill="#000000" font-family="sans-serif" font-size="11" lengthAdjust="spacing" textLength="3.7061" x="394.7993" y="110.4604">:</text><text fill="#000000" font-family="sans-serif" font-size="11" lengthAdjust="spacing" textLength="233.3579" x="19" y="123.2651">Task&lt;IReadOnlyList&lt;SessionSummary&gt;&gt;</text><text fill="#000000" font-family="sans-serif" font-size="11" lengthAdjust="spacing" textLength="54.6777" x="19" y="148.0698">+&#171;async&#187;</text><text fill="#000000" font-family="sans-serif" font-size="11" lengthAdjust="spacing" textLength="3.4966" x="73.6777" y="148.0698">&#160;</text><text fill="#000000" font-family="sans-serif" font-size="11" lengthAdjust="spacing" textLength="289.0347" x="77.1743" y="148.0698">CreateSessionAsync(request:CreateSessionRequest,</text><text fill="#000000" font-family="sans-serif" font-size="11" lengthAdjust="spacing" textLength="209.7466" x="19" y="160.8745">cancellationToken:CancellationToken)</text><text fill="#000000" font-family="sans-serif" font-size="11" lengthAdjust="spacing" textLength="3.4966" x="228.7466" y="160.8745">&#160;</text><text fill="#000000" font-family="sans-serif" font-size="11" lengthAdjust="spacing" textLength="3.7061" x="232.2432" y="160.8745">:</text><text fill="#000000" font-family="sans-serif" font-size="11" lengthAdjust="spacing" textLength="3.4966" x="235.9492" y="160.8745">&#160;</text><text fill="#000000" font-family="sans-serif" font-size="11" lengthAdjust="spacing" textLength="139.1221" x="239.4458" y="160.8745">Task&lt;SessionSummary&gt;</text><text fill="#000000" font-family="sans-serif" font-size="11" lengthAdjust="spacing" textLength="54.6777" x="19" y="185.6792">+&#171;async&#187;</text><text fill="#000000" font-family="sans-serif" font-size="11" lengthAdjust="spacing" textLength="3.4966" x="73.6777" y="185.6792">&#160;</text><text fill="#000000" font-family="sans-serif" font-size="11" lengthAdjust="spacing" textLength="205.7075" x="77.1743" y="185.6792">DeleteSessionAsync(sessionId:string)</text><text fill="#000000" font-family="sans-serif" font-size="11" lengthAdjust="spacing" textLength="3.4966" x="282.8818" y="185.6792">&#160;</text><text fill="#000000" font-family="sans-serif" font-size="11" lengthAdjust="spacing" textLength="3.7061" x="286.3784" y="185.6792">:</text><text fill="#000000" font-family="sans-serif" font-size="11" lengthAdjust="spacing" textLength="3.4966" x="290.0845" y="185.6792">&#160;</text><text fill="#000000" font-family="sans-serif" font-size="11" lengthAdjust="spacing" textLength="75.5713" x="293.5811" y="185.6792">Task&lt;string&gt;</text><text fill="#000000" font-family="sans-serif" font-size="11" lengthAdjust="spacing" textLength="197.5918" x="19" y="210.4839">+GetSessionAsync(sessionId:string,</text><text fill="#000000" font-family="sans-serif" font-size="11" lengthAdjust="spacing" textLength="3.4966" x="216.5918" y="210.4839">&#160;</text><text fill="#000000" font-family="sans-serif" font-size="11" lengthAdjust="spacing" textLength="209.7466" x="220.0884" y="210.4839">cancellationToken:CancellationToken)</text><text fill="#000000" font-family="sans-serif" font-size="11" lengthAdjust="spacing" textLength="3.4966" x="429.835" y="210.4839">&#160;</text><text fill="#000000" font-family="sans-serif" font-size="11" lengthAdjust="spacing" textLength="3.7061" x="433.3315" y="210.4839">:</text><text fill="#000000" font-family="sans-serif" font-size="11" lengthAdjust="spacing" textLength="143.7197" x="19" y="223.2886">Task&lt;SessionDetailDto?&gt;</text><text fill="#000000" font-family="sans-serif" font-size="11" lengthAdjust="spacing" textLength="54.6777" x="19" y="248.0933">+&#171;async&#187;</text><text fill="#000000" font-family="sans-serif" font-size="11" lengthAdjust="spacing" textLength="3.4966" x="73.6777" y="248.0933">&#160;</text><text fill="#000000" font-family="sans-serif" font-size="11" lengthAdjust="spacing" textLength="185.8774" x="77.1743" y="248.0933">GetGraphsAsync(sessionId:string,</text><text fill="#000000" font-family="sans-serif" font-size="11" lengthAdjust="spacing" textLength="3.4966" x="263.0518" y="248.0933">&#160;</text><text fill="#000000" font-family="sans-serif" font-size="11" lengthAdjust="spacing" textLength="209.7466" x="266.5483" y="248.0933">cancellationToken:CancellationToken)</text><text fill="#000000" font-family="sans-serif" font-size="11" lengthAdjust="spacing" textLength="3.4966" x="476.2949" y="248.0933">&#160;</text><text fill="#000000" font-family="sans-serif" font-size="11" lengthAdjust="spacing" textLength="3.7061" x="479.7915" y="248.0933">:</text><text fill="#000000" font-family="sans-serif" font-size="11" lengthAdjust="spacing" textLength="191.4849" x="19" y="260.8979">Task&lt;IReadOnlyList&lt;GraphDto&gt;&gt;</text><text fill="#000000" font-family="sans-serif" font-size="11" lengthAdjust="spacing" textLength="54.6777" x="19" y="285.7026">+&#171;async&#187;</text><text fill="#000000" font-family="sans-serif" font-size="11" lengthAdjust="spacing" textLength="3.4966" x="73.6777" y="285.7026">&#160;</text><text fill="#000000" font-family="sans-serif" font-size="11" lengthAdjust="spacing" textLength="183.5786" x="77.1743" y="285.7026">AddArticleAsync(sessionId:string,</text><text fill="#000000" font-family="sans-serif" font-size="11" lengthAdjust="spacing" textLength="3.4966" x="260.7529" y="285.7026">&#160;</text><text fill="#000000" font-family="sans-serif" font-size="11" lengthAdjust="spacing" textLength="174.5713" x="264.2495" y="285.7026">request:AddWikiArticleRequest,</text><text fill="#000000" font-family="sans-serif" font-size="11" lengthAdjust="spacing" textLength="209.7466" x="19" y="298.5073">cancellationToken:CancellationToken)</text><text fill="#000000" font-family="sans-serif" font-size="11" lengthAdjust="spacing" textLength="3.4966" x="228.7466" y="298.5073">&#160;</text><text fill="#000000" font-family="sans-serif" font-size="11" lengthAdjust="spacing" textLength="3.7061" x="232.2432" y="298.5073">:</text><text fill="#000000" font-family="sans-serif" font-size="11" lengthAdjust="spacing" textLength="3.4966" x="235.9492" y="298.5073">&#160;</text><text fill="#000000" font-family="sans-serif" font-size="11" lengthAdjust="spacing" textLength="143.7197" x="239.4458" y="298.5073">Task&lt;SessionDetailDto?&gt;</text></g><!--class HttpClient--><g class="entity" data-qualified-name="HttpClient" data-source-line="29" id="ent0003"><rect fill="#F1F1F1" height="34.8047" rx="3" ry="3" style="stroke:#181818;stroke-width:0.5;" width="97.7251" x="575" y="141.5"/><ellipse cx="589" cy="158.9023" fill="#ADD1B2" rx="10" ry="10" style="stroke:#181818;stroke-width:1;"/><path d="M590.8281,163.1523 Q590.4219,163.3555 589.9688,163.4648 Q589.5156,163.5742 589.0313,163.5742 Q587.25,163.5742 586.3125,162.418 Q585.3906,161.2461 585.3906,159.043 Q585.3906,156.8242 586.3125,155.668 Q587.25,154.4961 589.0313,154.4961 Q589.5156,154.4961 589.9688,154.6055 Q590.4375,154.6992 590.8281,154.918 L590.8281,156.8398 Q590.3906,156.4336 589.9688,156.2461 Q589.5469,156.043 589.1094,156.043 Q588.1563,156.043 587.6719,156.8086 Q587.1875,157.5586 587.1875,159.043 Q587.1875,160.5117 587.6719,161.2617 Q588.1563,162.0117 589.1094,162.0117 Q589.5469,162.0117 589.9688,161.8242 Q590.3906,161.6367 590.8281,161.2305 L590.8281,163.1523 Z " fill="#000000"/><text fill="#000000" font-family="sans-serif" font-size="11" lengthAdjust="spacing" textLength="55.7251" x="608" y="162.7104">HttpClient</text></g><!--link ApiClient to HttpClient--><g class="link" data-entity-1="ent0002" data-entity-2="ent0003" data-link-type="dependency" data-source-line="29" id="lnk4"><path codeLine="29" d="M495.11,159 C525.01,159 546.72,159 568.72,159" fill="none" id="ApiClient-to-HttpClient" style="stroke:#191919;stroke-width:1;"/><polygon fill="#191919" points="574.72,159,565.72,155,569.72,159,565.72,163,574.72,159" style="stroke:#191919;stroke-width:1;"/><text fill="#000000" font-family="sans-serif" font-size="10" lengthAdjust="spacing" textLength="54.4775" x="506.2737" y="175.5113">_httpClient</text></g><?plantuml-src hLDTRzD047pthrZwqXO8IW8jLMGPMOaebP2GcafvH1lV9ZxbV6VsrYekuhzpZjFQISC37txQcvdREUsiJwDJc96WDgIW91wiGWK6QrS9h1n3xbW_E2jem5TBfN7DM02JLSJ-JVH2SYe82cGV-GnDKtw7qN3yxkNxowl8q4f07B1Uvm9ACsMYdOtyHjiIcqv6MvAw970ikUiHFaVbxhLTmmgDfnx3hh9gwjWImsKVHxlnLCBLi0TQfwW1B_fWYKerdVkt5upbGYl9uMBSryveXPMHZs46S_r0C1htoAb1xplgxI6LYh1ULaATPdIecGinkMO6dQZ_W9JPtH-diZsFcypPhMOOvLeHK55A3GKLon1LjDL2MkgfqMG5ujXJo4ib2Vo887olEl8i5odRSlBfgJpVoU8OVMspSF6QP4xUXqHzsa1d6TgCZC4cv3kt8JkP7YBdC84xz9luvfPGVR6c_goznBi-ywe8krGdoJElAHCAxMIj6zEtYhnCzgZR5dmDV_AM0_TdvZCoT63ksyEDclWmVxj-wjKU7tjq8pf-xQ_UsVwnCt4VacEPN8TLplt_yDlFQDitk1v99rKgPT6PeT_PFeOLb0kzqJlrlwJLdyBFgDlimI21aw_T2fz0jyE_0000?></g></svg>