<?plantuml 1.2026.2?><svg xmlns="http://www.w3.org/2000/svg" xmlns:xlink="http://www.w3.org/1999/xlink" contentStyleType="text/css" data-diagram-type="CLASS" height="95px" preserveAspectRatio="none" style="width:117px;height:95px;background:#F9F9F9;" version="1.1" viewBox="0 0 117 95" width="117px" zoomAndPan="magnify"><defs/><g><rect fill="#F9F9F9" height="95" style="stroke:none;stroke-width:1;" width="117" x="0" y="0"/><!--class Program--><g class="entity" data-qualified-name="Program" data-source-line="20" id="ent0002"><rect fill="#F1F1F1" height="74.4453" rx="3" ry="3" style="stroke:#181818;stroke-width:0.5;" width="96.8467" x="7" y="7"/><ellipse cx="21" cy="44.2227" fill="#ADD1B2" rx="10" ry="10" style="stroke:#181818;stroke-width:1;"/><path d="M22.8281,48.4727 Q22.4219,48.6758 21.9688,48.7852 Q21.5156,48.8945 21.0313,48.8945 Q19.25,48.8945 18.3125,47.7383 Q17.3906,46.5664 17.3906,44.3633 Q17.3906,42.1445 18.3125,40.9883 Q19.25,39.8164 21.0313,39.8164 Q21.5156,39.8164 21.9688,39.9258 Q22.4375,40.0195 22.8281,40.2383 L22.8281,42.1602 Q22.3906,41.7539 21.9688,41.5664 Q21.5469,41.3633 21.1094,41.3633 Q20.1563,41.3633 19.6719,42.1289 Q19.1875,42.8789 19.1875,44.3633 Q19.1875,45.832 19.6719,46.582 Q20.1563,47.332 21.1094,47.332 Q21.5469,47.332 21.9688,47.1445 Q22.3906,46.957 22.8281,46.5508 L22.8281,48.4727 Z " fill="#000000"/><text fill="#000000" font-family="sans-serif" font-size="10" font-style="italic" lengthAdjust="spacing" textLength="44.5361" x="45.1553" y="31.2822">&#171;partial&#187;</text><text fill="#000000" font-family="sans-serif" font-size="11" lengthAdjust="spacing" textLength="46.8467" x="44" y="63.8511">Program</text></g><?plantuml-src RP5DQm8n48Rl-HNJar1eSUtdGGHH2hqLF7YUtSowmIGJ9hDOM_hVk-l5Q7iRdkVbJPYPc0ciIT5vif18xjfX0ez7xXLQ5X12Y_N0SbzRXpl1CB1eIVAzkT6E0a50oIOtwCVn4whfxF7svVdLA2TGXffLEO1rGeqwZYRlNKmuDdaNIO-9W4KxBaJkqFB1nHsqw3CLHhYFTiKIIU2vv1ZtcH9Kisb18rlwInDQEtPN9TmAfgspsi7JHNXDBVPUtpZgndtHK5N8bSUSp-hXMYrLnTMzqZbJNMSsIa8yhk4SAZ-m5E73_wgvUEEzuNZAJ4tdB065f4S85EhXMkQKXG_Xqmtdyw517Vh50hxDpoy0?></g></svg>