<?plantuml 1.2026.2?><svg xmlns="http://www.w3.org/2000/svg" xmlns:xlink="http://www.w3.org/1999/xlink" contentStyleType="text/css" data-diagram-type="CLASS" height="741px" preserveAspectRatio="none" style="width:977px;height:741px;background:#F9F9F9;" version="1.1" viewBox="0 0 977 741" width="977px" zoomAndPan="magnify"><defs/><g><rect fill="#F9F9F9" height="741" style="stroke:none;stroke-width:1;" width="977" x="0" y="0"/><!--class WikiSessionService--><g class="entity" data-qualified-name="WikiSessionService" data-source-line="20" id="ent0002"><rect fill="#F1F1F1" height="565.7344" rx="3" ry="3" style="stroke:#181818;stroke-width:0.5;" width="533.2305" x="209" y="7"/><ellipse cx="408.624" cy="44.2227" fill="#ADD1B2" rx="10" ry="10" style="stroke:#181818;stroke-width:1;"/><path d="M410.4521,48.4727 Q410.0459,48.6758 409.5928,48.7852 Q409.1396,48.8945 408.6553,48.8945 Q406.874,48.8945 405.9365,47.7383 Q405.0146,46.5664 405.0146,44.3633 Q405.0146,42.1445 405.9365,40.9883 Q406.874,39.8164 408.6553,39.8164 Q409.1396,39.8164 409.5928,39.9258 Q410.0615,40.0195 410.4521,40.2383 L410.4521,42.1602 Q410.0146,41.7539 409.5928,41.5664 Q409.1709,41.3633 408.7334,41.3633 Q407.7803,41.3633 407.2959,42.1289 Q406.8115,42.8789 406.8115,44.3633 Q406.8115,45.832 407.2959,46.582 Q407.7803,47.332 408.7334,47.332 Q409.1709,47.332 409.5928,47.1445 Q410.0146,46.957 410.4521,46.5508 L410.4521,48.4727 Z " fill="#000000"/><text fill="#000000" font-family="sans-serif" font-size="10" font-style="italic" lengthAdjust="spacing" textLength="45.1123" x="468.0591" y="31.2822">&#171;sealed&#187;</text><text fill="#000000" font-family="sans-serif" font-size="11" lengthAdjust="spacing" textLength="105.9824" x="437.624" y="63.8511">WikiSessionService</text><line style="stroke:#181818;stroke-width:0.5;" x1="210" x2="741.2305" y1="81.4453" y2="81.4453"/><text fill="#000000" font-family="sans-serif" font-size="11" lengthAdjust="spacing" textLength="313.8975" x="225" y="105.6558">+WikiSessionService(wikipediaService:WikipediaService,</text><text fill="#000000" font-family="sans-serif" font-size="11" lengthAdjust="spacing" textLength="3.4966" x="538.8975" y="105.6558">&#160;</text><text fill="#000000" font-family="sans-serif" font-size="11" lengthAdjust="spacing" textLength="165.1504" x="542.394" y="105.6558">geminiService:GeminiService,</text><text fill="#000000" font-family="sans-serif" font-size="11" lengthAdjust="spacing" textLength="239.019" x="225" y="118.4604">sessionRepository:SqliteSessionRepository,</text><text fill="#000000" font-family="sans-serif" font-size="11" lengthAdjust="spacing" textLength="3.4966" x="464.019" y="118.4604">&#160;</text><text fill="#000000" font-family="sans-serif" font-size="11" lengthAdjust="spacing" textLength="168.5825" x="467.5156" y="118.4604">vectorStore:SqliteVectorStore)</text><text fill="#000000" font-family="sans-serif" font-size="11" lengthAdjust="spacing" textLength="54.6777" x="225" y="151.2651">+&#171;async&#187;</text><text fill="#000000" font-family="sans-serif" font-size="11" lengthAdjust="spacing" textLength="3.4966" x="279.6777" y="151.2651">&#160;</text><text fill="#000000" font-family="sans-serif" font-size="11" lengthAdjust="spacing" textLength="183.5786" x="283.1743" y="151.2651">AddArticleAsync(sessionId:string,</text><text fill="#000000" font-family="sans-serif" font-size="11" lengthAdjust="spacing" textLength="3.4966" x="466.7529" y="151.2651">&#160;</text><text fill="#000000" font-family="sans-serif" font-size="11" lengthAdjust="spacing" textLength="174.5713" x="470.2495" y="151.2651">request:AddWikiArticleRequest,</text><text fill="#000000" font-family="sans-serif" font-size="11" lengthAdjust="spacing" textLength="209.7466" x="225" y="164.0698">cancellationToken:CancellationToken)</text><text fill="#000000" font-family="sans-serif" font-size="11" lengthAdjust="spacing" textLength="3.4966" x="434.7466" y="164.0698">&#160;</text><text fill="#000000" font-family="sans-serif" font-size="11" lengthAdjust="spacing" textLength="3.7061" x="438.2432" y="164.0698">:</text><text fill="#000000" font-family="sans-serif" font-size="11" lengthAdjust="spacing" textLength="3.4966" x="441.9492" y="164.0698">&#160;</text><text fill="#000000" font-family="sans-serif" font-size="11" lengthAdjust="spacing" textLength="137.8813" x="445.4458" y="164.0698">Task&lt;SessionDetailDto&gt;</text><text fill="#000000" font-family="sans-serif" font-size="11" lengthAdjust="spacing" text-decoration="underline" textLength="177.2407" x="225" y="196.8745">-BuildSearchText(prompt:string,</text><text fill="#000000" font-family="sans-serif" font-size="11" lengthAdjust="spacing" text-decoration="underline" textLength="3.4966" x="402.2407" y="196.8745">&#160;</text><text fill="#000000" font-family="sans-serif" font-size="11" lengthAdjust="spacing" text-decoration="underline" textLength="225.124" x="405.7373" y="196.8745">messages:IReadOnlyList&lt;MessageDto&gt;)</text><text fill="#000000" font-family="sans-serif" font-size="11" lengthAdjust="spacing" text-decoration="underline" textLength="3.4966" x="630.8613" y="196.8745">&#160;</text><text fill="#000000" font-family="sans-serif" font-size="11" lengthAdjust="spacing" text-decoration="underline" textLength="3.7061" x="634.3579" y="196.8745">:</text><text fill="#000000" font-family="sans-serif" font-size="11" lengthAdjust="spacing" text-decoration="underline" textLength="3.4966" x="638.064" y="196.8745">&#160;</text><text fill="#000000" font-family="sans-serif" font-size="11" lengthAdjust="spacing" text-decoration="underline" textLength="31.5767" x="641.5605" y="196.8745">string</text><text fill="#000000" font-family="sans-serif" font-size="11" lengthAdjust="spacing" text-decoration="underline" textLength="175.0654" x="225" y="229.6792">-BuildUserMessage(topic:string,</text><text fill="#000000" font-family="sans-serif" font-size="11" lengthAdjust="spacing" text-decoration="underline" textLength="3.4966" x="400.0654" y="229.6792">&#160;</text><text fill="#000000" font-family="sans-serif" font-size="11" lengthAdjust="spacing" text-decoration="underline" textLength="106.4175" x="403.562" y="229.6792">wikipediaUrl:string,</text><text fill="#000000" font-family="sans-serif" font-size="11" lengthAdjust="spacing" text-decoration="underline" textLength="3.4966" x="509.9795" y="229.6792">&#160;</text><text fill="#000000" font-family="sans-serif" font-size="11" lengthAdjust="spacing" text-decoration="underline" textLength="97.9902" x="513.4761" y="229.6792">articleTitle:string)</text><text fill="#000000" font-family="sans-serif" font-size="11" lengthAdjust="spacing" text-decoration="underline" textLength="3.4966" x="611.4663" y="229.6792">&#160;</text><text fill="#000000" font-family="sans-serif" font-size="11" lengthAdjust="spacing" text-decoration="underline" textLength="3.7061" x="614.9629" y="229.6792">:</text><text fill="#000000" font-family="sans-serif" font-size="11" lengthAdjust="spacing" text-decoration="underline" textLength="3.4966" x="618.6689" y="229.6792">&#160;</text><text fill="#000000" font-family="sans-serif" font-size="11" lengthAdjust="spacing" text-decoration="underline" textLength="31.5767" x="622.1655" y="229.6792">string</text><text fill="#000000" font-family="sans-serif" font-size="11" lengthAdjust="spacing" text-decoration="underline" textLength="184.8193" x="225" y="262.4839">-BuildCitations(article:WikiArticle,</text><text fill="#000000" font-family="sans-serif" font-size="11" lengthAdjust="spacing" text-decoration="underline" textLength="3.4966" x="409.8193" y="262.4839">&#160;</text><text fill="#000000" font-family="sans-serif" font-size="11" lengthAdjust="spacing" text-decoration="underline" textLength="206.4434" x="413.3159" y="262.4839">matches:IReadOnlyList&lt;WikiMatch&gt;)</text><text fill="#000000" font-family="sans-serif" font-size="11" lengthAdjust="spacing" text-decoration="underline" textLength="3.4966" x="619.7593" y="262.4839">&#160;</text><text fill="#000000" font-family="sans-serif" font-size="11" lengthAdjust="spacing" text-decoration="underline" textLength="3.7061" x="623.2559" y="262.4839">:</text><text fill="#000000" font-family="sans-serif" font-size="11" lengthAdjust="spacing" text-decoration="underline" textLength="156.6104" x="225" y="275.2886">IReadOnlyList&lt;CitationDto&gt;</text><text fill="#000000" font-family="sans-serif" font-size="11" lengthAdjust="spacing" text-decoration="underline" textLength="185.5444" x="225" y="308.0933">-BuildCitationUrl(sourceUrl:string,</text><text fill="#000000" font-family="sans-serif" font-size="11" lengthAdjust="spacing" text-decoration="underline" textLength="3.4966" x="410.5444" y="308.0933">&#160;</text><text fill="#000000" font-family="sans-serif" font-size="11" lengthAdjust="spacing" text-decoration="underline" textLength="83.397" x="414.041" y="308.0933">anchor:string?)</text><text fill="#000000" font-family="sans-serif" font-size="11" lengthAdjust="spacing" text-decoration="underline" textLength="3.4966" x="497.438" y="308.0933">&#160;</text><text fill="#000000" font-family="sans-serif" font-size="11" lengthAdjust="spacing" text-decoration="underline" textLength="3.7061" x="500.9346" y="308.0933">:</text><text fill="#000000" font-family="sans-serif" font-size="11" lengthAdjust="spacing" text-decoration="underline" textLength="3.4966" x="504.6406" y="308.0933">&#160;</text><text fill="#000000" font-family="sans-serif" font-size="11" lengthAdjust="spacing" text-decoration="underline" textLength="31.5767" x="508.1372" y="308.0933">string</text><text fill="#000000" font-family="sans-serif" font-size="11" lengthAdjust="spacing" text-decoration="underline" textLength="154.3706" x="225" y="340.8979">-BuildGraphs(prompt:string,</text><text fill="#000000" font-family="sans-serif" font-size="11" lengthAdjust="spacing" text-decoration="underline" textLength="3.4966" x="379.3706" y="340.8979">&#160;</text><text fill="#000000" font-family="sans-serif" font-size="11" lengthAdjust="spacing" text-decoration="underline" textLength="100.3535" x="382.8672" y="340.8979">article:WikiArticle,</text><text fill="#000000" font-family="sans-serif" font-size="11" lengthAdjust="spacing" text-decoration="underline" textLength="3.4966" x="483.2207" y="340.8979">&#160;</text><text fill="#000000" font-family="sans-serif" font-size="11" lengthAdjust="spacing" text-decoration="underline" textLength="207.4316" x="486.7173" y="340.8979">relatedTopics:IReadOnlyList&lt;string&gt;,</text><text fill="#000000" font-family="sans-serif" font-size="11" lengthAdjust="spacing" text-decoration="underline" textLength="284.0879" x="225" y="353.7026">intelligentSupportingTopics:IReadOnlyList&lt;string&gt;,</text><text fill="#000000" font-family="sans-serif" font-size="11" lengthAdjust="spacing" text-decoration="underline" textLength="3.4966" x="509.0879" y="353.7026">&#160;</text><text fill="#000000" font-family="sans-serif" font-size="11" lengthAdjust="spacing" text-decoration="underline" textLength="206.4434" x="512.5845" y="353.7026">matches:IReadOnlyList&lt;WikiMatch&gt;)</text><text fill="#000000" font-family="sans-serif" font-size="11" lengthAdjust="spacing" text-decoration="underline" textLength="3.4966" x="719.0278" y="353.7026">&#160;</text><text fill="#000000" font-family="sans-serif" font-size="11" lengthAdjust="spacing" text-decoration="underline" textLength="3.7061" x="722.5244" y="353.7026">:</text><text fill="#000000" font-family="sans-serif" font-size="11" lengthAdjust="spacing" text-decoration="underline" textLength="147.4902" x="225" y="366.5073">IReadOnlyList&lt;GraphDto&gt;</text><text fill="#000000" font-family="sans-serif" font-size="11" lengthAdjust="spacing" text-decoration="underline" textLength="231.9883" x="225" y="399.312">-BuildSupportingTopics(article:WikiArticle,</text><text fill="#000000" font-family="sans-serif" font-size="11" lengthAdjust="spacing" text-decoration="underline" textLength="3.4966" x="456.9883" y="399.312">&#160;</text><text fill="#000000" font-family="sans-serif" font-size="11" lengthAdjust="spacing" text-decoration="underline" textLength="205.6484" x="460.4849" y="399.312">matches:IReadOnlyList&lt;WikiMatch&gt;,</text><text fill="#000000" font-family="sans-serif" font-size="11" lengthAdjust="spacing" text-decoration="underline" textLength="284.8828" x="225" y="412.1167">intelligentSupportingTopics:IReadOnlyList&lt;string&gt;)</text><text fill="#000000" font-family="sans-serif" font-size="11" lengthAdjust="spacing" text-decoration="underline" textLength="3.4966" x="509.8828" y="412.1167">&#160;</text><text fill="#000000" font-family="sans-serif" font-size="11" lengthAdjust="spacing" text-decoration="underline" textLength="3.7061" x="513.3794" y="412.1167">:</text><text fill="#000000" font-family="sans-serif" font-size="11" lengthAdjust="spacing" text-decoration="underline" textLength="3.4966" x="517.0854" y="412.1167">&#160;</text><text fill="#000000" font-family="sans-serif" font-size="11" lengthAdjust="spacing" text-decoration="underline" textLength="125.8125" x="520.582" y="412.1167">IReadOnlyList&lt;string&gt;</text><text fill="#000000" font-family="sans-serif" font-size="11" lengthAdjust="spacing" text-decoration="underline" textLength="277.3096" x="225" y="444.9214">-BuildFallbackSupportingTopics(article:WikiArticle,</text><text fill="#000000" font-family="sans-serif" font-size="11" lengthAdjust="spacing" text-decoration="underline" textLength="3.4966" x="502.3096" y="444.9214">&#160;</text><text fill="#000000" font-family="sans-serif" font-size="11" lengthAdjust="spacing" text-decoration="underline" textLength="206.4434" x="505.8062" y="444.9214">matches:IReadOnlyList&lt;WikiMatch&gt;)</text><text fill="#000000" font-family="sans-serif" font-size="11" lengthAdjust="spacing" text-decoration="underline" textLength="3.4966" x="712.2495" y="444.9214">&#160;</text><text fill="#000000" font-family="sans-serif" font-size="11" lengthAdjust="spacing" text-decoration="underline" textLength="3.7061" x="715.7461" y="444.9214">:</text><text fill="#000000" font-family="sans-serif" font-size="11" lengthAdjust="spacing" text-decoration="underline" textLength="119.7002" x="225" y="457.7261">IEnumerable&lt;string&gt;</text><text fill="#000000" font-family="sans-serif" font-size="11" lengthAdjust="spacing" text-decoration="underline" textLength="196.8882" x="225" y="490.5308">-NormalizeGraphLabel(value:string)</text><text fill="#000000" font-family="sans-serif" font-size="11" lengthAdjust="spacing" text-decoration="underline" textLength="3.4966" x="421.8882" y="490.5308">&#160;</text><text fill="#000000" font-family="sans-serif" font-size="11" lengthAdjust="spacing" text-decoration="underline" textLength="3.7061" x="425.3848" y="490.5308">:</text><text fill="#000000" font-family="sans-serif" font-size="11" lengthAdjust="spacing" text-decoration="underline" textLength="3.4966" x="429.0908" y="490.5308">&#160;</text><text fill="#000000" font-family="sans-serif" font-size="11" lengthAdjust="spacing" text-decoration="underline" textLength="31.5767" x="432.5874" y="490.5308">string</text><text fill="#000000" font-family="sans-serif" font-size="11" lengthAdjust="spacing" text-decoration="underline" textLength="181.2798" x="225" y="523.3354">-IsUsefulGraphLabel(label:string)</text><text fill="#000000" font-family="sans-serif" font-size="11" lengthAdjust="spacing" text-decoration="underline" textLength="3.4966" x="406.2798" y="523.3354">&#160;</text><text fill="#000000" font-family="sans-serif" font-size="11" lengthAdjust="spacing" text-decoration="underline" textLength="3.7061" x="409.7764" y="523.3354">:</text><text fill="#000000" font-family="sans-serif" font-size="11" lengthAdjust="spacing" text-decoration="underline" textLength="3.4966" x="413.4824" y="523.3354">&#160;</text><text fill="#000000" font-family="sans-serif" font-size="11" lengthAdjust="spacing" text-decoration="underline" textLength="23.4985" x="416.979" y="523.3354">bool</text><text fill="#000000" font-family="sans-serif" font-size="11" lengthAdjust="spacing" text-decoration="underline" textLength="137.3711" x="225" y="556.1401">-InferTitle(prompt:string)</text><text fill="#000000" font-family="sans-serif" font-size="11" lengthAdjust="spacing" text-decoration="underline" textLength="3.4966" x="362.3711" y="556.1401">&#160;</text><text fill="#000000" font-family="sans-serif" font-size="11" lengthAdjust="spacing" text-decoration="underline" textLength="3.7061" x="365.8677" y="556.1401">:</text><text fill="#000000" font-family="sans-serif" font-size="11" lengthAdjust="spacing" text-decoration="underline" textLength="3.4966" x="369.5737" y="556.1401">&#160;</text><text fill="#000000" font-family="sans-serif" font-size="11" lengthAdjust="spacing" text-decoration="underline" textLength="31.5767" x="373.0703" y="556.1401">string</text></g><!--class WikipediaService--><g class="entity" data-qualified-name="WikipediaService" data-source-line="34" id="ent0003"><rect fill="#F1F1F1" height="42.8047" rx="3" ry="3" style="stroke:#181818;stroke-width:0.5;" width="144.542" x="7" y="693"/><ellipse cx="21" cy="714.4023" fill="#ADD1B2" rx="10" ry="10" style="stroke:#181818;stroke-width:1;"/><path d="M22.8281,718.6523 Q22.4219,718.8555 21.9688,718.9648 Q21.5156,719.0742 21.0313,719.0742 Q19.25,719.0742 18.3125,717.918 Q17.3906,716.7461 17.3906,714.543 Q17.3906,712.3242 18.3125,711.168 Q19.25,709.9961 21.0313,709.9961 Q21.5156,709.9961 21.9688,710.1055 Q22.4375,710.1992 22.8281,710.418 L22.8281,712.3398 Q22.3906,711.9336 21.9688,711.7461 Q21.5469,711.543 21.1094,711.543 Q20.1563,711.543 19.6719,712.3086 Q19.1875,713.0586 19.1875,714.543 Q19.1875,716.0117 19.6719,716.7617 Q20.1563,717.5117 21.1094,717.5117 Q21.5469,717.5117 21.9688,717.3242 Q22.3906,717.1367 22.8281,716.7305 L22.8281,718.6523 Z " fill="#000000"/><text fill="#000000" font-family="sans-serif" font-size="11" lengthAdjust="spacing" textLength="94.542" x="44" y="718.2104">WikipediaService</text></g><!--class GeminiService--><g class="entity" data-qualified-name="GeminiService" data-source-line="35" id="ent0005"><rect fill="#F1F1F1" height="42.8047" rx="3" ry="3" style="stroke:#181818;stroke-width:0.5;" width="129.7446" x="272.5" y="693"/><ellipse cx="286.5" cy="714.4023" fill="#ADD1B2" rx="10" ry="10" style="stroke:#181818;stroke-width:1;"/><path d="M288.3281,718.6523 Q287.9219,718.8555 287.4688,718.9648 Q287.0156,719.0742 286.5313,719.0742 Q284.75,719.0742 283.8125,717.918 Q282.8906,716.7461 282.8906,714.543 Q282.8906,712.3242 283.8125,711.168 Q284.75,709.9961 286.5313,709.9961 Q287.0156,709.9961 287.4688,710.1055 Q287.9375,710.1992 288.3281,710.418 L288.3281,712.3398 Q287.8906,711.9336 287.4688,711.7461 Q287.0469,711.543 286.6094,711.543 Q285.6563,711.543 285.1719,712.3086 Q284.6875,713.0586 284.6875,714.543 Q284.6875,716.0117 285.1719,716.7617 Q285.6563,717.5117 286.6094,717.5117 Q287.0469,717.5117 287.4688,717.3242 Q287.8906,717.1367 288.3281,716.7305 L288.3281,718.6523 Z " fill="#000000"/><text fill="#000000" font-family="sans-serif" font-size="11" lengthAdjust="spacing" textLength="79.7446" x="309.5" y="718.2104">GeminiService</text></g><!--class SqliteSessionRepository--><g class="entity" data-qualified-name="SqliteSessionRepository" data-source-line="36" id="ent0007"><rect fill="#F1F1F1" height="42.8047" rx="3" ry="3" style="stroke:#181818;stroke-width:0.5;" width="182.1128" x="522.5" y="693"/><ellipse cx="536.5" cy="714.4023" fill="#ADD1B2" rx="10" ry="10" style="stroke:#181818;stroke-width:1;"/><path d="M538.3281,718.6523 Q537.9219,718.8555 537.4688,718.9648 Q537.0156,719.0742 536.5313,719.0742 Q534.75,719.0742 533.8125,717.918 Q532.8906,716.7461 532.8906,714.543 Q532.8906,712.3242 533.8125,711.168 Q534.75,709.9961 536.5313,709.9961 Q537.0156,709.9961 537.4688,710.1055 Q537.9375,710.1992 538.3281,710.418 L538.3281,712.3398 Q537.8906,711.9336 537.4688,711.7461 Q537.0469,711.543 536.6094,711.543 Q535.6563,711.543 535.1719,712.3086 Q534.6875,713.0586 534.6875,714.543 Q534.6875,716.0117 535.1719,716.7617 Q535.6563,717.5117 536.6094,717.5117 Q537.0469,717.5117 537.4688,717.3242 Q537.8906,717.1367 538.3281,716.7305 L538.3281,718.6523 Z " fill="#000000"/><text fill="#000000" font-family="sans-serif" font-size="11" lengthAdjust="spacing" textLength="132.1128" x="559.5" y="718.2104">SqliteSessionRepository</text></g><!--class SqliteVectorStore--><g class="entity" data-qualified-name="SqliteVectorStore" data-source-line="37" id="ent0009"><rect fill="#F1F1F1" height="42.8047" rx="3" ry="3" style="stroke:#181818;stroke-width:0.5;" width="146.3789" x="824.5" y="693"/><ellipse cx="838.5" cy="714.4023" fill="#ADD1B2" rx="10" ry="10" style="stroke:#181818;stroke-width:1;"/><path d="M840.3281,718.6523 Q839.9219,718.8555 839.4688,718.9648 Q839.0156,719.0742 838.5313,719.0742 Q836.75,719.0742 835.8125,717.918 Q834.8906,716.7461 834.8906,714.543 Q834.8906,712.3242 835.8125,711.168 Q836.75,709.9961 838.5313,709.9961 Q839.0156,709.9961 839.4688,710.1055 Q839.9375,710.1992 840.3281,710.418 L840.3281,712.3398 Q839.8906,711.9336 839.4688,711.7461 Q839.0469,711.543 838.6094,711.543 Q837.6563,711.543 837.1719,712.3086 Q836.6875,713.0586 836.6875,714.543 Q836.6875,716.0117 837.1719,716.7617 Q837.6563,717.5117 838.6094,717.5117 Q839.0469,717.5117 839.4688,717.3242 Q839.8906,717.1367 840.3281,716.7305 L840.3281,718.6523 Z " fill="#000000"/><text fill="#000000" font-family="sans-serif" font-size="11" lengthAdjust="spacing" textLength="96.3789" x="861.5" y="718.2104">SqliteVectorStore</text></g><!--link WikiSessionService to WikipediaService--><g class="link" data-entity-1="ent0002" data-entity-2="ent0003" data-link-type="dependency" data-source-line="34" id="lnk4"><path codeLine="34" d="M240.75,573.19 C240.75,651.28 240.75,715 240.75,715 C240.75,715 200.91,715 158.11,715" fill="none" id="WikiSessionService-to-WikipediaService" style="stroke:#191919;stroke-width:1;"/><polygon fill="#191919" points="152.11,715,161.11,719,157.11,715,161.11,711,152.11,715" style="stroke:#191919;stroke-width:1;"/><text fill="#000000" font-family="sans-serif" font-size="10" lengthAdjust="spacing" textLength="89.2383" x="165.4337" y="701.9331">_wikipediaService</text></g><!--link WikiSessionService to GeminiService--><g class="link" data-entity-1="ent0002" data-entity-2="ent0005" data-link-type="dependency" data-source-line="35" id="lnk6"><path codeLine="35" d="M337.5,573.15 C337.5,623.34 337.5,661.55 337.5,686.64" fill="none" id="WikiSessionService-to-GeminiService" style="stroke:#191919;stroke-width:1;"/><polygon fill="#191919" points="337.5,692.64,341.5,683.64,337.5,687.64,333.5,683.64,337.5,692.64" style="stroke:#191919;stroke-width:1;"/><text fill="#000000" font-family="sans-serif" font-size="10" lengthAdjust="spacing" textLength="76.0938" x="358.0382" y="672.8412">_geminiService</text></g><!--link WikiSessionService to SqliteSessionRepository--><g class="link" data-entity-1="ent0002" data-entity-2="ent0007" data-link-type="dependency" data-source-line="36" id="lnk8"><path codeLine="36" d="M613.5,573.15 C613.5,623.34 613.5,661.55 613.5,686.64" fill="none" id="WikiSessionService-to-SqliteSessionRepository" style="stroke:#191919;stroke-width:1;"/><polygon fill="#191919" points="613.5,692.64,617.5,683.64,613.5,687.64,609.5,683.64,613.5,692.64" style="stroke:#191919;stroke-width:1;"/><text fill="#000000" font-family="sans-serif" font-size="10" lengthAdjust="spacing" textLength="95.6396" x="495.9795" y="672.8412">_sessionRepository</text></g><!--link WikiSessionService to SqliteVectorStore--><g class="link" data-entity-1="ent0002" data-entity-2="ent0009" data-link-type="dependency" data-source-line="37" id="lnk10"><path codeLine="37" d="M723.25,573.19 C723.25,651.28 723.25,715 723.25,715 C723.25,715 770.67,715 818.36,715" fill="none" id="WikiSessionService-to-SqliteVectorStore" style="stroke:#191919;stroke-width:1;"/><polygon fill="#191919" points="824.36,715,815.36,711,819.36,715,815.36,719,824.36,715" style="stroke:#191919;stroke-width:1;"/><text fill="#000000" font-family="sans-serif" font-size="10" lengthAdjust="spacing" textLength="63.3691" x="743.299" y="702.2569">_vectorStore</text></g><?plantuml-src hLLHRzem47xFhxZnKhR1LBgjcoB4nEXQ8RMRrD3nE1dx81QEdTfEMrRrl-yI0eG0grOD2PHyzztTv_FTSHGSmHbw9XKAID6sf_G4YYrCvc5gB5XaWaq8Szb4I3QpB25C2xJkNV3AnvWW9Cowm76cyiS7w1oVV7ZpwVHpu4qAti34U6yI4D8YzzBemCsbJbaUIKcDVf4Y6EjZKp6uc0bpB_KCfamvh5YioRGO6AlHmcaLPthkC8NEoN45rKRWBfeo8VBOdIeujYmTI-5Z-BX5FiCfovG_Dzf7yZTIg8fne9Xp6zFxkgdllPMJpEE6qwbp8eyMJLw63Qage6-jkTzlubivXjpeWdCSn58WO9Bw1IIOJEYsWe8BOpcN4Jf7zn2XlPCSeTjrI7SdUZru380-R_UmclS4fKWjK0BXk0QqO8Q9r79blwY-jS0jmrrZQfpqnYx2w5P9Zr4TRy4TzOcn4Nsn9FtS8AzBYTqkSmlDINHVYBxraYlivqYpp3GKeQF2w5cB6lOsG-T3OkQgI_Rr4cq1PvgZKYnlpf6Pemu7TUGrX31YRjujvIvdvioRNY6d3O_E4vi_mTTCAX4XipmUuODlfjRGDQob9EJFPkZ2uJLDrW-j5fVI-UxL4iu3vgcMxBsXRnpQajsa0PDy7NfzGpTMhK6sFEj8UeKb-4o2WVJ5kLspz0qhDQC3CC_Z7VqvvIgt5FAtRQk01wkr8f3kfZEPvRXr0irZOylNBy-8lw0XZbszw7iFOf7k5yKehs7zE4l7NWkazjG7SeOqVLcQqfeY_Eyk_rwWGlJXNghbVTcrlE0ekq9BmrwPvqof2UFp_oEtoFrDPmdQ_D_dKERlnYPCqSehIdZ99gYQTqnbpxVwqD4WJJDLSLJvRyLnOepQSTDJjCKmRVTO9T5Ji6V7jjizQFogxz06r9VeOT-jvTg0hUrws6jdwpRWmDez7AEoZbVUbNty1m00?></g></svg>