<?plantuml 1.2026.2?><svg xmlns="http://www.w3.org/2000/svg" xmlns:xlink="http://www.w3.org/1999/xlink" contentStyleType="text/css" data-diagram-type="CLASS" height="374px" preserveAspectRatio="none" style="width:1466px;height:374px;background:#FFFFFF;" version="1.1" viewBox="0 0 1466 374" width="1466px" zoomAndPan="magnify"><defs/><g><!--class WikiSessionService--><g class="entity" data-qualified-name="WikiSessionService" data-source-line="1" id="ent0002"><rect fill="#F1F1F1" height="251.8281" rx="2.5" ry="2.5" style="stroke:#181818;stroke-width:0.5;" width="1452.5918" x="7" y="7"/><ellipse cx="661.6025" cy="27.1328" fill="#ADD1B2" rx="11" ry="11" style="stroke:#181818;stroke-width:1;"/><path d="M664.5713,32.7734 Q663.9932,33.0703 663.3525,33.2109 Q662.7119,33.3672 662.0088,33.3672 Q659.5088,33.3672 658.1807,31.7266 Q656.8682,30.0703 656.8682,26.9453 Q656.8682,23.8203 658.1807,22.1641 Q659.5088,20.5078 662.0088,20.5078 Q662.7119,20.5078 663.3525,20.6641 Q664.0088,20.8203 664.5713,21.1172 L664.5713,23.8359 Q663.9463,23.2578 663.3525,22.9922 Q662.7588,22.7109 662.1338,22.7109 Q660.79,22.7109 660.1025,23.7891 Q659.415,24.8516 659.415,26.9453 Q659.415,29.0391 660.1025,30.1172 Q660.79,31.1797 662.1338,31.1797 Q662.7588,31.1797 663.3525,30.9141 Q663.9463,30.6328 664.5713,30.0547 L664.5713,32.7734 Z " fill="#000000"/><text fill="#000000" font-family="sans-serif" font-size="12" font-style="italic" lengthAdjust="spacing" textLength="54.1348" x="722.4785" y="23.1387">&#171;sealed&#187;</text><text fill="#000000" font-family="sans-serif" font-size="14" lengthAdjust="spacing" textLength="134.8867" x="682.1025" y="38.9639">WikiSessionService</text><line style="stroke:#181818;stroke-width:0.5;" x1="8" x2="1458.5918" y1="47.2656" y2="47.2656"/><line style="stroke:#181818;stroke-width:0.5;" x1="8" x2="1458.5918" y1="55.2656" y2="55.2656"/><g data-visibility-modifier="PUBLIC_METHOD"><ellipse cx="18" cy="68.9141" fill="#84BE84" rx="3" ry="3" style="stroke:#038048;stroke-width:1;"/></g><text fill="#000000" font-family="sans-serif" font-size="14" lengthAdjust="spacing" textLength="1130.083" x="27" y="72.2607">WikiSessionService(wikipediaService:WikipediaService, geminiService:GeminiService, sessionRepository:SqliteSessionRepository, vectorStore:SqliteVectorStore)</text><g data-visibility-modifier="PUBLIC_METHOD"><ellipse cx="18" cy="85.2109" fill="#84BE84" rx="3" ry="3" style="stroke:#038048;stroke-width:1;"/></g><text fill="#000000" font-family="sans-serif" font-size="14" lengthAdjust="spacing" textLength="983.0898" x="27" y="88.5576">&#171;async&#187; AddArticleAsync(sessionId:string, request:AddWikiArticleRequest, cancellationToken:CancellationToken) : Task&lt;SessionDetailDto&gt;</text><g data-visibility-modifier="PRIVATE_METHOD"><rect fill="#F24D5C" height="6" style="stroke:#C82930;stroke-width:1;" width="6" x="15" y="98.5078"/></g><text fill="#000000" font-family="sans-serif" font-size="14" lengthAdjust="spacing" text-decoration="underline" textLength="565.3047" x="27" y="104.8545">BuildSearchText(prompt:string, messages:IReadOnlyList&lt;MessageDto&gt;) : string</text><g data-visibility-modifier="PRIVATE_METHOD"><rect fill="#F24D5C" height="6" style="stroke:#C82930;stroke-width:1;" width="6" x="15" y="114.8047"/></g><text fill="#000000" font-family="sans-serif" font-size="14" lengthAdjust="spacing" text-decoration="underline" textLength="540.6201" x="27" y="121.1514">BuildUserMessage(topic:string, wikipediaUrl:string, articleTitle:string) : string</text><g data-visibility-modifier="PRIVATE_METHOD"><rect fill="#F24D5C" height="6" style="stroke:#C82930;stroke-width:1;" width="6" x="15" y="131.1016"/></g><text fill="#000000" font-family="sans-serif" font-size="14" lengthAdjust="spacing" text-decoration="underline" textLength="710.3086" x="27" y="137.4482">BuildCitations(article:WikiArticle, matches:IReadOnlyList&lt;WikiMatch&gt;) : IReadOnlyList&lt;CitationDto&gt;</text><g data-visibility-modifier="PRIVATE_METHOD"><rect fill="#F24D5C" height="6" style="stroke:#C82930;stroke-width:1;" width="6" x="15" y="147.3984"/></g><text fill="#000000" font-family="sans-serif" font-size="14" lengthAdjust="spacing" text-decoration="underline" textLength="395.4932" x="27" y="153.7451">BuildCitationUrl(sourceUrl:string, anchor:string?) : string</text><g data-visibility-modifier="PRIVATE_METHOD"><rect fill="#F24D5C" height="6" style="stroke:#C82930;stroke-width:1;" width="6" x="15" y="163.6953"/></g><text fill="#000000" font-family="sans-serif" font-size="14" lengthAdjust="spacing" text-decoration="underline" textLength="1426.5918" x="27" y="170.042">BuildGraphs(prompt:string, article:WikiArticle, relatedTopics:IReadOnlyList&lt;string&gt;, intelligentSupportingTopics:IReadOnlyList&lt;string&gt;, matches:IReadOnlyList&lt;WikiMatch&gt;) : IReadOnlyList&lt;GraphDto&gt;</text><g data-visibility-modifier="PRIVATE_METHOD"><rect fill="#F24D5C" height="6" style="stroke:#C82930;stroke-width:1;" width="6" x="15" y="179.9922"/></g><text fill="#000000" font-family="sans-serif" font-size="14" lengthAdjust="spacing" text-decoration="underline" textLength="1097.1611" x="27" y="186.3389">BuildSupportingTopics(article:WikiArticle, matches:IReadOnlyList&lt;WikiMatch&gt;, intelligentSupportingTopics:IReadOnlyList&lt;string&gt;) : IReadOnlyList&lt;string&gt;</text><g data-visibility-modifier="PRIVATE_METHOD"><rect fill="#F24D5C" height="6" style="stroke:#C82930;stroke-width:1;" width="6" x="15" y="196.2891"/></g><text fill="#000000" font-family="sans-serif" font-size="14" lengthAdjust="spacing" text-decoration="underline" textLength="781.0469" x="27" y="202.6357">BuildFallbackSupportingTopics(article:WikiArticle, matches:IReadOnlyList&lt;WikiMatch&gt;) : IEnumerable&lt;string&gt;</text><g data-visibility-modifier="PRIVATE_METHOD"><rect fill="#F24D5C" height="6" style="stroke:#C82930;stroke-width:1;" width="6" x="15" y="212.5859"/></g><text fill="#000000" font-family="sans-serif" font-size="14" lengthAdjust="spacing" text-decoration="underline" textLength="299.3389" x="27" y="218.9326">NormalizeGraphLabel(value:string) : string</text><g data-visibility-modifier="PRIVATE_METHOD"><rect fill="#F24D5C" height="6" style="stroke:#C82930;stroke-width:1;" width="6" x="15" y="228.8828"/></g><text fill="#000000" font-family="sans-serif" font-size="14" lengthAdjust="spacing" text-decoration="underline" textLength="269.1924" x="27" y="235.2295">IsUsefulGraphLabel(label:string) : bool</text><g data-visibility-modifier="PRIVATE_METHOD"><rect fill="#F24D5C" height="6" style="stroke:#C82930;stroke-width:1;" width="6" x="15" y="245.1797"/></g><text fill="#000000" font-family="sans-serif" font-size="14" lengthAdjust="spacing" text-decoration="underline" textLength="223.5898" x="27" y="251.5264">InferTitle(prompt:string) : string</text></g><!--class WikipediaService--><g class="entity" data-qualified-name="WikipediaService" data-source-line="15" id="ent0003"><rect fill="#F1F1F1" height="48" rx="2.5" ry="2.5" style="stroke:#181818;stroke-width:0.5;" width="152.3262" x="378.5" y="319"/><ellipse cx="393.5" cy="335" fill="#ADD1B2" rx="11" ry="11" style="stroke:#181818;stroke-width:1;"/><path d="M396.4688,340.6406 Q395.8906,340.9375 395.25,341.0781 Q394.6094,341.2344 393.9063,341.2344 Q391.4063,341.2344 390.0781,339.5938 Q388.7656,337.9375 388.7656,334.8125 Q388.7656,331.6875 390.0781,330.0313 Q391.4063,328.375 393.9063,328.375 Q394.6094,328.375 395.25,328.5313 Q395.9063,328.6875 396.4688,328.9844 L396.4688,331.7031 Q395.8438,331.125 395.25,330.8594 Q394.6563,330.5781 394.0313,330.5781 Q392.6875,330.5781 392,331.6563 Q391.3125,332.7188 391.3125,334.8125 Q391.3125,336.9063 392,337.9844 Q392.6875,339.0469 394.0313,339.0469 Q394.6563,339.0469 395.25,338.7813 Q395.8438,338.5 396.4688,337.9219 L396.4688,340.6406 Z " fill="#000000"/><text fill="#000000" font-family="sans-serif" font-size="14" lengthAdjust="spacing" textLength="120.3262" x="407.5" y="339.8467">WikipediaService</text><line style="stroke:#181818;stroke-width:0.5;" x1="379.5" x2="529.8262" y1="351" y2="351"/><line style="stroke:#181818;stroke-width:0.5;" x1="379.5" x2="529.8262" y1="359" y2="359"/></g><!--class GeminiService--><g class="entity" data-qualified-name="GeminiService" data-source-line="16" id="ent0005"><rect fill="#F1F1F1" height="48" rx="2.5" ry="2.5" style="stroke:#181818;stroke-width:0.5;" width="133.4932" x="566" y="319"/><ellipse cx="581" cy="335" fill="#ADD1B2" rx="11" ry="11" style="stroke:#181818;stroke-width:1;"/><path d="M583.9688,340.6406 Q583.3906,340.9375 582.75,341.0781 Q582.1094,341.2344 581.4063,341.2344 Q578.9063,341.2344 577.5781,339.5938 Q576.2656,337.9375 576.2656,334.8125 Q576.2656,331.6875 577.5781,330.0313 Q578.9063,328.375 581.4063,328.375 Q582.1094,328.375 582.75,328.5313 Q583.4063,328.6875 583.9688,328.9844 L583.9688,331.7031 Q583.3438,331.125 582.75,330.8594 Q582.1563,330.5781 581.5313,330.5781 Q580.1875,330.5781 579.5,331.6563 Q578.8125,332.7188 578.8125,334.8125 Q578.8125,336.9063 579.5,337.9844 Q580.1875,339.0469 581.5313,339.0469 Q582.1563,339.0469 582.75,338.7813 Q583.3438,338.5 583.9688,337.9219 L583.9688,340.6406 Z " fill="#000000"/><text fill="#000000" font-family="sans-serif" font-size="14" lengthAdjust="spacing" textLength="101.4932" x="595" y="339.8467">GeminiService</text><line style="stroke:#181818;stroke-width:0.5;" x1="567" x2="698.4932" y1="351" y2="351"/><line style="stroke:#181818;stroke-width:0.5;" x1="567" x2="698.4932" y1="359" y2="359"/></g><!--class SqliteSessionRepository--><g class="entity" data-qualified-name="SqliteSessionRepository" data-source-line="17" id="ent0007"><rect fill="#F1F1F1" height="48" rx="2.5" ry="2.5" style="stroke:#181818;stroke-width:0.5;" width="200.1436" x="734.5" y="319"/><ellipse cx="749.5" cy="335" fill="#ADD1B2" rx="11" ry="11" style="stroke:#181818;stroke-width:1;"/><path d="M752.4688,340.6406 Q751.8906,340.9375 751.25,341.0781 Q750.6094,341.2344 749.9063,341.2344 Q747.4063,341.2344 746.0781,339.5938 Q744.7656,337.9375 744.7656,334.8125 Q744.7656,331.6875 746.0781,330.0313 Q747.4063,328.375 749.9063,328.375 Q750.6094,328.375 751.25,328.5313 Q751.9063,328.6875 752.4688,328.9844 L752.4688,331.7031 Q751.8438,331.125 751.25,330.8594 Q750.6563,330.5781 750.0313,330.5781 Q748.6875,330.5781 748,331.6563 Q747.3125,332.7188 747.3125,334.8125 Q747.3125,336.9063 748,337.9844 Q748.6875,339.0469 750.0313,339.0469 Q750.6563,339.0469 751.25,338.7813 Q751.8438,338.5 752.4688,337.9219 L752.4688,340.6406 Z " fill="#000000"/><text fill="#000000" font-family="sans-serif" font-size="14" lengthAdjust="spacing" textLength="168.1436" x="763.5" y="339.8467">SqliteSessionRepository</text><line style="stroke:#181818;stroke-width:0.5;" x1="735.5" x2="933.6436" y1="351" y2="351"/><line style="stroke:#181818;stroke-width:0.5;" x1="735.5" x2="933.6436" y1="359" y2="359"/></g><!--class SqliteVectorStore--><g class="entity" data-qualified-name="SqliteVectorStore" data-source-line="18" id="ent0009"><rect fill="#F1F1F1" height="48" rx="2.5" ry="2.5" style="stroke:#181818;stroke-width:0.5;" width="154.6641" x="970" y="319"/><ellipse cx="985" cy="335" fill="#ADD1B2" rx="11" ry="11" style="stroke:#181818;stroke-width:1;"/><path d="M987.9688,340.6406 Q987.3906,340.9375 986.75,341.0781 Q986.1094,341.2344 985.4063,341.2344 Q982.9063,341.2344 981.5781,339.5938 Q980.2656,337.9375 980.2656,334.8125 Q980.2656,331.6875 981.5781,330.0313 Q982.9063,328.375 985.4063,328.375 Q986.1094,328.375 986.75,328.5313 Q987.4063,328.6875 987.9688,328.9844 L987.9688,331.7031 Q987.3438,331.125 986.75,330.8594 Q986.1563,330.5781 985.5313,330.5781 Q984.1875,330.5781 983.5,331.6563 Q982.8125,332.7188 982.8125,334.8125 Q982.8125,336.9063 983.5,337.9844 Q984.1875,339.0469 985.5313,339.0469 Q986.1563,339.0469 986.75,338.7813 Q987.3438,338.5 987.9688,337.9219 L987.9688,340.6406 Z " fill="#000000"/><text fill="#000000" font-family="sans-serif" font-size="14" lengthAdjust="spacing" textLength="122.6641" x="999" y="339.8467">SqliteVectorStore</text><line style="stroke:#181818;stroke-width:0.5;" x1="971" x2="1123.6641" y1="351" y2="351"/><line style="stroke:#181818;stroke-width:0.5;" x1="971" x2="1123.6641" y1="359" y2="359"/></g><!--link WikiSessionService to WikipediaService--><g class="link" data-entity-1="ent0002" data-entity-2="ent0003" data-link-type="dependency" data-source-line="15" id="lnk4"><path codeLine="15" d="M565.57,259.2 C534.87,282.08 510.9009,299.9546 490.3309,315.2846" fill="none" id="WikiSessionService-to-WikipediaService" style="stroke:#181818;stroke-width:1;"/><polygon fill="#181818" points="485.52,318.87,495.1266,316.6992,489.5291,315.8822,490.3461,310.2846,485.52,318.87" style="stroke:#181818;stroke-width:1;"/><text fill="#000000" font-family="sans-serif" font-size="13" lengthAdjust="spacing" textLength="116.0098" x="362.5658" y="307.8487">_wikipediaService</text></g><!--link WikiSessionService to GeminiService--><g class="link" data-entity-1="ent0002" data-entity-2="ent0005" data-link-type="dependency" data-source-line="16" id="lnk6"><path codeLine="16" d="M672.71,259.2 C661.6,282.08 653.8026,298.1435 646.3526,313.4735" fill="none" id="WikiSessionService-to-GeminiService" style="stroke:#181818;stroke-width:1;"/><polygon fill="#181818" points="643.73,318.87,651.2615,312.5236,645.9155,314.3729,644.0662,309.0269,643.73,318.87" style="stroke:#181818;stroke-width:1;"/><text fill="#000000" font-family="sans-serif" font-size="13" lengthAdjust="spacing" textLength="98.9219" x="536.1064" y="307.8487">_geminiService</text></g><!--link WikiSessionService to SqliteSessionRepository--><g class="link" data-entity-1="ent0002" data-entity-2="ent0007" data-link-type="dependency" data-source-line="17" id="lnk8"><path codeLine="17" d="M794.29,259.2 C805.4,282.08 813.1974,298.1435 820.6474,313.4735" fill="none" id="WikiSessionService-to-SqliteSessionRepository" style="stroke:#181818;stroke-width:1;"/><polygon fill="#181818" points="823.27,318.87,822.9338,309.0269,821.0845,314.3729,815.7385,312.5236,823.27,318.87" style="stroke:#181818;stroke-width:1;"/><text fill="#000000" font-family="sans-serif" font-size="13" lengthAdjust="spacing" textLength="124.3315" x="695.9553" y="307.9324">_sessionRepository</text></g><!--link WikiSessionService to SqliteVectorStore--><g class="link" data-entity-1="ent0002" data-entity-2="ent0009" data-link-type="dependency" data-source-line="18" id="lnk10"><path codeLine="18" d="M922.5,259.2 C957.05,282.08 984.4374,300.2273 1007.5874,315.5573" fill="none" id="WikiSessionService-to-SqliteVectorStore" style="stroke:#181818;stroke-width:1;"/><polygon fill="#181818" points="1012.59,318.87,1007.2946,310.5659,1008.4212,316.1094,1002.8776,317.236,1012.59,318.87" style="stroke:#181818;stroke-width:1;"/><text fill="#000000" font-family="sans-serif" font-size="13" lengthAdjust="spacing" textLength="82.3799" x="933.1124" y="307.8621">_vectorStore</text></g><?plantuml-src hLHXRvim4FtUNs7b4zN87q28AMlNAbAxIO6k7wUBkH8hXqrjaosh-jzdm4a92OjQ3Ga4p_VktftDumJ6i4Un5YaQ8vHCKMy4HnR71e4mJnBsSi7SzUb4LF3BGHNc0ZmGFGw0a1LO2YbswxVzhv2PBjq2AsM4LNeRfSyaBAP3F6GRvEubTJVwe1zloAMN6CTWjf8xqRCydsahEE6iGG9VQPv7nceXYv1fVAxHsCX5DgfzzA93GyP1SYG2wrYPMgECheR89OjO1cOTUxdNQ47GjLL9AsVANenrqVoLVQa5vIc2vgiCVzkWqggix5vAwVXGe8dc2uJykwJjdJ0slk_W9c5Jgei-cVh1eFRHWLMLuFlK-nrwqBG7eUir4vRGWsSAN0dRzcq2purwCtCDWEMh8_rDo7spqie_NDib79tMBi3f3eogDSU33YHVAUq_FvyHVwkXMfdXq4ysej7jB-PPCyDXEnqn2PcGrfq3KQ2qQLrLof5byM_A-mVKYXu_IuEw7zkM3xHoBDGld9Hv0qHBuEl_8xUj_LNM9MfO4evL_gPq2IJ-O3l2ErWY1HkW-lnHdnlt8ptLr2DIy-mHbqhH4Kq-eMv_fiCprYlqUd72OwVJX4r-3ZrqmeOcEiuzCDS9Et3NSTQHwqxOYEsEv-ZPyOxTy-E_?></g></svg>