<?plantuml 1.2026.2?><svg xmlns="http://www.w3.org/2000/svg" xmlns:xlink="http://www.w3.org/1999/xlink" contentStyleType="text/css" data-diagram-type="CLASS" height="683.7912px" preserveAspectRatio="none" style="width:1024px;height:683px;background:#F9F9F9;" version="1.1" viewBox="0 0 1024 683" width="1024.7942px" zoomAndPan="magnify"><defs/><g><rect fill="#F9F9F9" height="683.7912" style="stroke:none;stroke-width:0.8927;" width="1024.7942" x="0" y="0"/><!--class GeminiServiceTests--><g class="entity" data-qualified-name="GeminiServiceTests" data-source-line="20" id="ent0002"><rect fill="#F1F1F1" height="213.5941" rx="2.678" ry="2.678" style="stroke:#181818;stroke-width:0.4463;" width="479.7764" x="6.2487" y="6.2487"/><ellipse cx="184.9857" cy="39.4766" fill="#ADD1B2" rx="8.9268" ry="8.9268" style="stroke:#181818;stroke-width:0.8927;"/><path d="M186.6176,43.2705 Q186.255,43.4518 185.8505,43.5494 Q185.446,43.6471 185.0136,43.6471 Q183.4235,43.6471 182.5866,42.6149 Q181.7637,41.5688 181.7637,39.6021 Q181.7637,37.6215 182.5866,36.5893 Q183.4235,35.5432 185.0136,35.5432 Q185.446,35.5432 185.8505,35.6409 Q186.2689,35.7245 186.6176,35.9198 L186.6176,37.6354 Q186.2271,37.2728 185.8505,37.1054 Q185.4739,36.9241 185.0833,36.9241 Q184.2325,36.9241 183.8001,37.6075 Q183.3677,38.277 183.3677,39.6021 Q183.3677,40.9132 183.8001,41.5827 Q184.2325,42.2523 185.0833,42.2523 Q185.4739,42.2523 185.8505,42.0849 Q186.2271,41.9175 186.6176,41.5549 L186.6176,43.2705 Z " fill="#000000"/><text fill="#000000" font-family="sans-serif" font-size="8.9268" font-style="italic" lengthAdjust="spacing" textLength="40.2708" x="239.3917" y="27.925">&#171;sealed&#187;</text><text fill="#000000" font-family="sans-serif" font-size="9.8195" lengthAdjust="spacing" textLength="97.3076" x="210.8733" y="56.9984">GeminiServiceTests</text><line style="stroke:#181818;stroke-width:0.4463;" x1="7.1414" x2="485.1325" y1="72.7044" y2="72.7044"/><text fill="#000000" font-family="sans-serif" font-size="9.8195" lengthAdjust="spacing" textLength="48.8096" x="20.5316" y="94.3166">+&#171;async&#187;</text><text fill="#000000" font-family="sans-serif" font-size="9.8195" lengthAdjust="spacing" textLength="3.1213" x="69.3412" y="94.3166">&#160;</text><text fill="#000000" font-family="sans-serif" font-size="9.8195" lengthAdjust="spacing" textLength="387.7151" x="72.4625" y="94.3166">GenerateReplyAsync_UsesKeyedGeminiChatServiceWhenApiKeyIsConfigured()</text><text fill="#000000" font-family="sans-serif" font-size="9.8195" lengthAdjust="spacing" textLength="3.1213" x="460.1776" y="94.3166">&#160;</text><text fill="#000000" font-family="sans-serif" font-size="9.8195" lengthAdjust="spacing" textLength="3.3083" x="463.2989" y="94.3166">:</text><text fill="#000000" font-family="sans-serif" font-size="9.8195" lengthAdjust="spacing" textLength="22.8178" x="20.5316" y="105.747">Task</text><text fill="#000000" font-family="sans-serif" font-size="9.8195" lengthAdjust="spacing" textLength="48.8096" x="20.5316" y="135.031">+&#171;async&#187;</text><text fill="#000000" font-family="sans-serif" font-size="9.8195" lengthAdjust="spacing" textLength="418.842" x="20.5316" y="146.4615">PlanWikipediaLookupAsync_UsesKeyedGeminiChatServiceWhenApiKeyIsConfigured()</text><text fill="#000000" font-family="sans-serif" font-size="9.8195" lengthAdjust="spacing" textLength="3.1213" x="439.3736" y="146.4615">&#160;</text><text fill="#000000" font-family="sans-serif" font-size="9.8195" lengthAdjust="spacing" textLength="3.3083" x="442.4949" y="146.4615">:</text><text fill="#000000" font-family="sans-serif" font-size="9.8195" lengthAdjust="spacing" textLength="3.1213" x="445.8032" y="146.4615">&#160;</text><text fill="#000000" font-family="sans-serif" font-size="9.8195" lengthAdjust="spacing" textLength="22.8178" x="448.9246" y="146.4615">Task</text><text fill="#000000" font-family="sans-serif" font-size="9.8195" lengthAdjust="spacing" text-decoration="underline" textLength="312.3767" x="20.5316" y="175.7455">-BuildProvider(chatCompletionService:IChatCompletionService)</text><text fill="#000000" font-family="sans-serif" font-size="9.8195" lengthAdjust="spacing" text-decoration="underline" textLength="3.1213" x="332.9083" y="175.7455">&#160;</text><text fill="#000000" font-family="sans-serif" font-size="9.8195" lengthAdjust="spacing" text-decoration="underline" textLength="3.3083" x="336.0296" y="175.7455">:</text><text fill="#000000" font-family="sans-serif" font-size="9.8195" lengthAdjust="spacing" text-decoration="underline" textLength="3.1213" x="339.3379" y="175.7455">&#160;</text><text fill="#000000" font-family="sans-serif" font-size="9.8195" lengthAdjust="spacing" text-decoration="underline" textLength="77.1077" x="342.4592" y="175.7455">ServiceProvider</text><text fill="#000000" font-family="sans-serif" font-size="9.8195" lengthAdjust="spacing" text-decoration="underline" textLength="231.4812" x="20.5316" y="205.0295">-BuildGeminiService(provider:IServiceProvider)</text><text fill="#000000" font-family="sans-serif" font-size="9.8195" lengthAdjust="spacing" text-decoration="underline" textLength="3.1213" x="252.0128" y="205.0295">&#160;</text><text fill="#000000" font-family="sans-serif" font-size="9.8195" lengthAdjust="spacing" text-decoration="underline" textLength="3.3083" x="255.1341" y="205.0295">:</text><text fill="#000000" font-family="sans-serif" font-size="9.8195" lengthAdjust="spacing" text-decoration="underline" textLength="3.1213" x="258.4424" y="205.0295">&#160;</text><text fill="#000000" font-family="sans-serif" font-size="9.8195" lengthAdjust="spacing" text-decoration="underline" textLength="71.1863" x="261.5638" y="205.0295">GeminiService</text></g><!--class FakeChatCompletionService--><g class="entity" data-qualified-name="FakeChatCompletionService" data-source-line="26" id="ent0003"><rect fill="#F1F1F1" height="207.171" rx="2.678" ry="2.678" style="stroke:#181818;stroke-width:0.4463;" width="489.2507" x="215.5817" y="326.7201"/><ellipse cx="378.2733" cy="359.9479" fill="#ADD1B2" rx="8.9268" ry="8.9268" style="stroke:#181818;stroke-width:0.8927;"/><path d="M379.9053,363.7418 Q379.5426,363.9231 379.1381,364.0208 Q378.7336,364.1184 378.3012,364.1184 Q376.7111,364.1184 375.8743,363.0863 Q375.0513,362.0401 375.0513,360.0735 Q375.0513,358.0928 375.8743,357.0607 Q376.7111,356.0146 378.3012,356.0146 Q378.7336,356.0146 379.1381,356.1122 Q379.5566,356.1959 379.9053,356.3912 L379.9053,358.1068 Q379.5147,357.7441 379.1381,357.5768 Q378.7615,357.3954 378.371,357.3954 Q377.5201,357.3954 377.0877,358.0789 Q376.6553,358.7484 376.6553,360.0735 Q376.6553,361.3846 377.0877,362.0541 Q377.5201,362.7236 378.371,362.7236 Q378.7615,362.7236 379.1381,362.5562 Q379.5147,362.3888 379.9053,362.0262 L379.9053,363.7418 Z " fill="#000000"/><text fill="#000000" font-family="sans-serif" font-size="8.9268" font-style="italic" lengthAdjust="spacing" textLength="40.2708" x="453.4618" y="348.3963">&#171;sealed&#187;</text><text fill="#000000" font-family="sans-serif" font-size="9.8195" lengthAdjust="spacing" textLength="138.8724" x="404.161" y="377.4698">FakeChatCompletionService</text><line style="stroke:#181818;stroke-width:0.4463;" x1="216.4744" x2="703.9397" y1="393.1758" y2="393.1758"/><text fill="#000000" font-family="sans-serif" font-size="9.8195" lengthAdjust="spacing" textLength="243.8514" x="229.8645" y="414.7879">+FakeChatCompletionService(responses:string[])</text><text fill="#000000" font-family="sans-serif" font-size="9.8195" lengthAdjust="spacing" textLength="289.7123" x="229.8645" y="444.0719">+GetChatMessageContentsAsync(chatHistory:ChatHistory,</text><text fill="#000000" font-family="sans-serif" font-size="9.8195" lengthAdjust="spacing" textLength="224.6201" x="229.8645" y="455.5024">executionSettings:PromptExecutionSettings?,</text><text fill="#000000" font-family="sans-serif" font-size="9.8195" lengthAdjust="spacing" textLength="3.1213" x="454.4846" y="455.5024">&#160;</text><text fill="#000000" font-family="sans-serif" font-size="9.8195" lengthAdjust="spacing" textLength="73.9096" x="457.6059" y="455.5024">kernel:Kernel?,</text><text fill="#000000" font-family="sans-serif" font-size="9.8195" lengthAdjust="spacing" textLength="187.2361" x="229.8645" y="466.9328">cancellationToken:CancellationToken)</text><text fill="#000000" font-family="sans-serif" font-size="9.8195" lengthAdjust="spacing" textLength="3.1213" x="417.1007" y="466.9328">&#160;</text><text fill="#000000" font-family="sans-serif" font-size="9.8195" lengthAdjust="spacing" textLength="3.3083" x="420.222" y="466.9328">:</text><text fill="#000000" font-family="sans-serif" font-size="9.8195" lengthAdjust="spacing" textLength="3.1213" x="423.5303" y="466.9328">&#160;</text><text fill="#000000" font-family="sans-serif" font-size="9.8195" lengthAdjust="spacing" textLength="228.4318" x="426.6516" y="466.9328">Task&lt;IReadOnlyList&lt;ChatMessageContent&gt;&gt;</text><text fill="#000000" font-family="sans-serif" font-size="9.8195" lengthAdjust="spacing" textLength="48.8096" x="229.8645" y="496.2169">+&#171;async&#187;</text><text fill="#000000" font-family="sans-serif" font-size="9.8195" lengthAdjust="spacing" textLength="3.1213" x="278.6741" y="496.2169">&#160;</text><text fill="#000000" font-family="sans-serif" font-size="9.8195" lengthAdjust="spacing" textLength="332.4135" x="281.7955" y="496.2169">GetStreamingChatMessageContentsAsync(chatHistory:ChatHistory,</text><text fill="#000000" font-family="sans-serif" font-size="9.8195" lengthAdjust="spacing" textLength="224.6201" x="229.8645" y="507.6473">executionSettings:PromptExecutionSettings?,</text><text fill="#000000" font-family="sans-serif" font-size="9.8195" lengthAdjust="spacing" textLength="3.1213" x="454.4846" y="507.6473">&#160;</text><text fill="#000000" font-family="sans-serif" font-size="9.8195" lengthAdjust="spacing" textLength="73.9096" x="457.6059" y="507.6473">kernel:Kernel?,</text><text fill="#000000" font-family="sans-serif" font-size="9.8195" lengthAdjust="spacing" textLength="187.2361" x="229.8645" y="519.0778">cancellationToken:CancellationToken)</text><text fill="#000000" font-family="sans-serif" font-size="9.8195" lengthAdjust="spacing" textLength="3.1213" x="417.1007" y="519.0778">&#160;</text><text fill="#000000" font-family="sans-serif" font-size="9.8195" lengthAdjust="spacing" textLength="3.3083" x="420.222" y="519.0778">:</text><text fill="#000000" font-family="sans-serif" font-size="9.8195" lengthAdjust="spacing" textLength="3.1213" x="423.5303" y="519.0778">&#160;</text><text fill="#000000" font-family="sans-serif" font-size="9.8195" lengthAdjust="spacing" textLength="263.8979" x="426.6516" y="519.0778">IAsyncEnumerable&lt;StreamingChatMessageContent&gt;</text></g><!--class Queue`1--><g class="entity" data-qualified-name="Queue.1" data-source-line="31" id="ent0004"><rect fill="#F1F1F1" height="38.2108" rx="2.678" ry="2.678" style="stroke:#181818;stroke-width:0.4463;" width="114.9266" x="402.5977" y="640.9427"/><ellipse cx="415.0952" cy="660.0481" fill="#ADD1B2" rx="8.9268" ry="8.9268" style="stroke:#181818;stroke-width:0.8927;"/><path d="M416.7271,663.842 Q416.3645,664.0233 415.96,664.1209 Q415.5555,664.2186 415.1231,664.2186 Q413.533,664.2186 412.6961,663.1864 Q411.8732,662.1403 411.8732,660.1736 Q411.8732,658.193 412.6961,657.1608 Q413.533,656.1147 415.1231,656.1147 Q415.5555,656.1147 415.96,656.2124 Q416.3784,656.2961 416.7271,656.4913 L416.7271,658.2069 Q416.3366,657.8443 415.96,657.6769 Q415.5834,657.4956 415.1928,657.4956 Q414.342,657.4956 413.9096,658.179 Q413.4772,658.8486 413.4772,660.1736 Q413.4772,661.4847 413.9096,662.1543 Q414.342,662.8238 415.1928,662.8238 Q415.5834,662.8238 415.96,662.6564 Q416.3366,662.489 416.7271,662.1264 L416.7271,663.842 Z " fill="#000000"/><text fill="#000000" font-family="sans-serif" font-size="9.8195" lengthAdjust="spacing" textLength="43.4156" x="435.6268" y="663.4475">Queue`1</text><rect fill="#FFFFFF" height="30.0302" style="stroke:#181818;stroke-width:0.8927;stroke-dasharray:1.7854,1.7854;" width="25.0917" x="495.1106" y="638.2647"/><text fill="#000000" font-family="sans-serif" font-size="8.9268" font-style="italic" lengthAdjust="spacing" textLength="5.4528" x="504.9301" y="656.3702">T</text></g><!--class IReadOnlyDictionary`2--><g class="entity" data-qualified-name="IReadOnlyDictionary.2" data-source-line="33" id="ent0005"><rect fill="#F1F1F1" height="38.2108" rx="2.678" ry="2.678" style="stroke:#181818;stroke-width:0.4463;" width="203.1827" x="811.8905" y="411.0781"/><ellipse cx="824.388" cy="430.1835" fill="#ADD1B2" rx="8.9268" ry="8.9268" style="stroke:#181818;stroke-width:0.8927;"/><path d="M826.0199,433.9774 Q825.6573,434.1588 825.2528,434.2564 Q824.8483,434.354 824.4159,434.354 Q822.8258,434.354 821.9889,433.3219 Q821.166,432.2758 821.166,430.3091 Q821.166,428.3285 821.9889,427.2963 Q822.8258,426.2502 824.4159,426.2502 Q824.8483,426.2502 825.2528,426.3478 Q825.6712,426.4315 826.0199,426.6268 L826.0199,428.3424 Q825.6294,427.9797 825.2528,427.8124 Q824.8762,427.631 824.4856,427.631 Q823.6348,427.631 823.2024,428.3145 Q822.77,428.984 822.77,430.3091 Q822.77,431.6202 823.2024,432.2897 Q823.6348,432.9592 824.4856,432.9592 Q824.8762,432.9592 825.2528,432.7918 Q825.6294,432.6245 826.0199,432.2618 L826.0199,433.9774 Z " fill="#000000"/><text fill="#000000" font-family="sans-serif" font-size="9.8195" lengthAdjust="spacing" textLength="112.0224" x="844.9196" y="433.583">IReadOnlyDictionary`2</text><rect fill="#FFFFFF" height="30.0302" style="stroke:#181818;stroke-width:0.8927;stroke-dasharray:1.7854,1.7854;" width="44.7411" x="973.0101" y="408.4001"/><text fill="#000000" font-family="sans-serif" font-size="8.9268" font-style="italic" lengthAdjust="spacing" textLength="25.1022" x="982.8296" y="426.5056">T1,T2</text></g><!--class IChatCompletionService--><g class="entity" data-qualified-name="IChatCompletionService" data-source-line="36" id="ent0007"><rect fill="#F1F1F1" height="38.2108" rx="2.678" ry="2.678" style="stroke:#181818;stroke-width:0.4463;" width="163.0092" x="592.7381" y="93.7312"/><ellipse cx="605.2356" cy="112.8366" fill="#ADD1B2" rx="8.9268" ry="8.9268" style="stroke:#181818;stroke-width:0.8927;"/><path d="M606.8675,116.6305 Q606.5049,116.8118 606.1004,116.9094 Q605.6959,117.0071 605.2635,117.0071 Q603.6734,117.0071 602.8365,115.9749 Q602.0136,114.9288 602.0136,112.9621 Q602.0136,110.9815 602.8365,109.9493 Q603.6734,108.9032 605.2635,108.9032 Q605.6959,108.9032 606.1004,109.0008 Q606.5188,109.0845 606.8675,109.2798 L606.8675,110.9954 Q606.477,110.6328 606.1004,110.4654 Q605.7238,110.2841 605.3332,110.2841 Q604.4824,110.2841 604.05,110.9675 Q603.6176,111.637 603.6176,112.9621 Q603.6176,114.2732 604.05,114.9427 Q604.4824,115.6122 605.3332,115.6122 Q605.7238,115.6122 606.1004,115.4449 Q606.477,115.2775 606.8675,114.9148 L606.8675,116.6305 Z " fill="#000000"/><text fill="#000000" font-family="sans-serif" font-size="9.8195" lengthAdjust="spacing" textLength="118.3753" x="625.7672" y="116.236">IChatCompletionService</text></g><!--reverse link GeminiServiceTests to FakeChatCompletionService--><g class="link" data-entity-1="ent0002" data-entity-2="ent0003" data-link-type="nested" data-source-line="35" id="lnk6"><path codeLine="35" d="M350.5992,234.203 C350.5992,268.6603 350.5992,292.4859 350.5992,326.6933" fill="none" id="GeminiServiceTests-backto-FakeChatCompletionService" style="stroke:#191919;stroke-width:0.8927;"/><ellipse cx="350.5992" cy="227.0615" fill="#F9F9F9" rx="7.1414" ry="7.1414" style="stroke:#191919;stroke-width:0.8927;"/><line style="stroke:#191919;stroke-width:0.8927;" x1="350.5992" x2="350.5992" y1="234.203" y2="219.9201"/><line style="stroke:#191919;stroke-width:0.8927;" x1="343.4578" x2="357.7406" y1="227.0615" y2="227.0615"/></g><!--reverse link IChatCompletionService to FakeChatCompletionService--><g class="link" data-entity-1="ent0007" data-entity-2="ent0003" data-link-type="extension" data-source-line="36" id="lnk8"><path codeLine="36" d="M648.7536,148.3631 C648.7536,186.2483 648.7536,256.4753 648.7536,326.5058" fill="none" id="IChatCompletionService-backto-FakeChatCompletionService" style="stroke:#191919;stroke-width:0.8927;"/><polygon fill="none" points="648.7536,132.2949,643.3976,148.3631,654.1097,148.3631,648.7536,132.2949" style="stroke:#191919;stroke-width:0.8927;"/></g><!--link FakeChatCompletionService to Queue`1--><g class="link" data-entity-1="ent0003" data-entity-2="ent0004" data-link-type="dependency" data-source-line="37" id="lnk9"><path codeLine="37" d="M460.1754,534.107 C460.1754,574.5632 460.1754,611.5022 460.1754,635.3635" fill="none" id="FakeChatCompletionService-to-Queue`1" style="stroke:#191919;stroke-width:0.8927;"/><polygon fill="#191919" points="460.1754,640.7195,463.7461,632.6854,460.1754,636.2561,456.6047,632.6854,460.1754,640.7195" style="stroke:#191919;stroke-width:0.8927;"/><text fill="#000000" font-family="sans-serif" font-size="8.9268" lengthAdjust="spacing" textLength="90.4403" x="348.6579" y="622.656">_responses&lt;string&gt;</text></g><!--link FakeChatCompletionService to IReadOnlyDictionary`2--><g class="link" data-entity-1="ent0003" data-entity-2="ent0005" data-link-type="aggregation" data-source-line="38" id="lnk10"><path codeLine="38" d="M715.5438,430.2707 C753.3041,430.2707 774.3177,430.2707 806.5166,430.2707" fill="none" id="FakeChatCompletionService-IReadOnlyDictionary`2" style="stroke:#191919;stroke-width:0.8927;"/><polygon fill="none" points="704.8316,430.2707,710.1877,433.8414,715.5438,430.2707,710.1877,426.7,704.8316,430.2707" style="stroke:#191919;stroke-width:0.8927;"/><polygon fill="#191919" points="811.8726,430.2707,803.8385,426.7,807.4093,430.2707,803.8385,433.8414,811.8726,430.2707" style="stroke:#191919;stroke-width:0.8927;"/><text fill="#000000" font-family="sans-serif" font-size="8.9268" lengthAdjust="spacing" textLength="119.8926" x="675.6654" y="452.5751">Attributes&lt;string,object?&gt;</text></g><?plantuml-src pLLDRnen4Btlht2vX3HG1TgcrGeHqKr2KL8r3LGSgYenwm7SzTgMFPjac-Q_TnO8Nrbowg5SC6_UFDippyDUiCTE0BbK89W5Ln_JYYcUcmpPs3ZcW0i-8ind8o7vnF6KC2t0-JV1Avn22YpbpWS-vgfOthF6OVFTwmz77mCqbg5X8uDeKYQaWnYbqO5FfBQyK59I0-OMc74uDMi1F-N2t4azOMEkFAn5dCcqY8pJuDZHEivrui6oHlDm3TL6m7FKSY4AxSOwE7JS3gN0ANk_GJw1CSyKdXcDVVaRI6ej62dk_IhqTZlKGNHob26iE8rjJX_1WIdAi2Aj7w3ZdBah3yKRU_HYesUSms0g1J18BUOiXNH4tGfcNDQ5L6hP1tShOnY0HyzQBG_KEz5kiuU0qUU08Evp7HFI1IeqHxW2g_9E0Lv_z-3F8GSnrugc71TwmodeZfKKxFd8wB6SP0v4TP-5RC1zyapyKd4zb8cqGDQwC2R9xB_OeiuUF7AKyIFxb4abBfsvfNguQamwaKcjWiA72yMm5vN1XU9Y-PHVAhvHqAfTKCFULcuXjq4D7XSTEUC9b9wWh34xoLK7tXfDTGizsK5FVlpSN-Hq0OkKB-0zdm0L3K6ZdnLwLf7FqgDnUHYjrZK6zn1dStr4alCXtOJyTBgD7zTO0lGQLNW--wBVCTSnACKBsi0aeCDe6tdgLwjtHGFcgrRv1UtSUdxEThl4ajX7cajKpCb_UR7Ux0YdEalfwT3iRBrmtFRI1vLl6MHmqwYq1aM_b_2oGYToDZwvos-QH6hK1iqviUHD7zJhkxqIz7RuxS-BMRkDMg-tMULwwS3Mt87jokfEBoIR8davmvwIQsRqY_ukZWkHyWhy1G00?></g></svg>