<?plantuml 1.2026.2?><svg xmlns="http://www.w3.org/2000/svg" xmlns:xlink="http://www.w3.org/1999/xlink" contentStyleType="text/css" data-diagram-type="CLASS" height="349px" preserveAspectRatio="none" style="width:1665px;height:349px;background:#FFFFFF;" version="1.1" viewBox="0 0 1665 349" width="1665px" zoomAndPan="magnify"><defs/><g><!--class WikipediaCitationTests--><g class="entity" data-qualified-name="WikipediaCitationTests" data-source-line="1" id="ent0002"><rect fill="#F1F1F1" height="170.3438" rx="2.5" ry="2.5" style="stroke:#181818;stroke-width:0.5;" width="852.0137" x="412.5" y="7"/><ellipse cx="754.0679" cy="27.1328" fill="#ADD1B2" rx="11" ry="11" style="stroke:#181818;stroke-width:1;"/><path d="M757.0366,32.7734 Q756.4585,33.0703 755.8179,33.2109 Q755.1772,33.3672 754.4741,33.3672 Q751.9741,33.3672 750.646,31.7266 Q749.3335,30.0703 749.3335,26.9453 Q749.3335,23.8203 750.646,22.1641 Q751.9741,20.5078 754.4741,20.5078 Q755.1772,20.5078 755.8179,20.6641 Q756.4741,20.8203 757.0366,21.1172 L757.0366,23.8359 Q756.4116,23.2578 755.8179,22.9922 Q755.2241,22.7109 754.5991,22.7109 Q753.2554,22.7109 752.5679,23.7891 Q751.8804,24.8516 751.8804,26.9453 Q751.8804,29.0391 752.5679,30.1172 Q753.2554,31.1797 754.5991,31.1797 Q755.2241,31.1797 755.8179,30.9141 Q756.4116,30.6328 757.0366,30.0547 L757.0366,32.7734 Z " fill="#000000"/><text fill="#000000" font-family="sans-serif" font-size="12" font-style="italic" lengthAdjust="spacing" textLength="54.1348" x="827.6895" y="23.1387">&#171;sealed&#187;</text><text fill="#000000" font-family="sans-serif" font-size="14" lengthAdjust="spacing" textLength="160.3779" x="774.5679" y="38.9639">WikipediaCitationTests</text><line style="stroke:#181818;stroke-width:0.5;" x1="413.5" x2="1263.5137" y1="47.2656" y2="47.2656"/><line style="stroke:#181818;stroke-width:0.5;" x1="413.5" x2="1263.5137" y1="55.2656" y2="55.2656"/><g data-visibility-modifier="PUBLIC_METHOD"><ellipse cx="423.5" cy="68.9141" fill="#84BE84" rx="3" ry="3" style="stroke:#038048;stroke-width:1;"/></g><text fill="#000000" font-family="sans-serif" font-size="14" lengthAdjust="spacing" textLength="636.4736" x="432.5" y="72.2607">&#171;async&#187; AddArticleAsync_LoadsPromptRelevantSectionsBeyondTheArticleOpening() : Task</text><g data-visibility-modifier="PUBLIC_METHOD"><ellipse cx="423.5" cy="85.2109" fill="#84BE84" rx="3" ry="3" style="stroke:#038048;stroke-width:1;"/></g><text fill="#000000" font-family="sans-serif" font-size="14" lengthAdjust="spacing" textLength="641.9287" x="432.5" y="88.5576">&#171;async&#187; AddArticleAsync_WhenUrlIsProvided_KeepsDiscussionCenteredOnThatLink() : Task</text><g data-visibility-modifier="PUBLIC_METHOD"><ellipse cx="423.5" cy="101.5078" fill="#84BE84" rx="3" ry="3" style="stroke:#038048;stroke-width:1;"/></g><text fill="#000000" font-family="sans-serif" font-size="14" lengthAdjust="spacing" textLength="580.2344" x="432.5" y="104.8545">&#171;async&#187; GetArticleAsync_SearchesOriginalPromptWhenAiLookupPlanDrifts() : Task</text><g data-visibility-modifier="PUBLIC_METHOD"><ellipse cx="423.5" cy="117.8047" fill="#84BE84" rx="3" ry="3" style="stroke:#038048;stroke-width:1;"/></g><text fill="#000000" font-family="sans-serif" font-size="14" lengthAdjust="spacing" textLength="486.042" x="432.5" y="121.1514">BuildCitations_DoesNotInventFragmentForGeneratedSections() : void</text><g data-visibility-modifier="PRIVATE_METHOD"><rect fill="#F24D5C" height="6" style="stroke:#C82930;stroke-width:1;" width="6" x="420.5" y="131.1016"/></g><text fill="#000000" font-family="sans-serif" font-size="14" lengthAdjust="spacing" text-decoration="underline" textLength="826.0137" x="432.5" y="137.4482">BuildSessionService(handler:QueuedWikipediaHandler, database:TempSqliteConnectionFactory) : WikiSessionService</text><g data-visibility-modifier="PRIVATE_METHOD"><rect fill="#F24D5C" height="6" style="stroke:#C82930;stroke-width:1;" width="6" x="420.5" y="147.3984"/></g><text fill="#000000" font-family="sans-serif" font-size="14" lengthAdjust="spacing" text-decoration="underline" textLength="689.4795" x="432.5" y="153.7451">EnqueueMcdonaldsArticle(handler:QueuedWikipediaHandler, firstExpectedQueryPart:string) : void</text><g data-visibility-modifier="PRIVATE_METHOD"><rect fill="#F24D5C" height="6" style="stroke:#C82930;stroke-width:1;" width="6" x="420.5" y="163.6953"/></g><text fill="#000000" font-family="sans-serif" font-size="14" lengthAdjust="spacing" text-decoration="underline" textLength="218.3877" x="432.5" y="170.042">SectionJson(text:string) : string</text></g><!--class QueuedWikipediaHandler--><g class="entity" data-qualified-name="QueuedWikipediaHandler" data-source-line="10" id="ent0003"><rect fill="#F1F1F1" height="105.1563" rx="2.5" ry="2.5" style="stroke:#181818;stroke-width:0.5;" width="900.9658" x="9" y="237"/><ellipse cx="365.9385" cy="257.1328" fill="#ADD1B2" rx="11" ry="11" style="stroke:#181818;stroke-width:1;"/><path d="M368.9072,262.7734 Q368.3291,263.0703 367.6885,263.2109 Q367.0479,263.3672 366.3447,263.3672 Q363.8447,263.3672 362.5166,261.7266 Q361.2041,260.0703 361.2041,256.9453 Q361.2041,253.8203 362.5166,252.1641 Q363.8447,250.5078 366.3447,250.5078 Q367.0479,250.5078 367.6885,250.6641 Q368.3447,250.8203 368.9072,251.1172 L368.9072,253.8359 Q368.2822,253.2578 367.6885,252.9922 Q367.0947,252.7109 366.4697,252.7109 Q365.126,252.7109 364.4385,253.7891 Q363.751,254.8516 363.751,256.9453 Q363.751,259.0391 364.4385,260.1172 Q365.126,261.1797 366.4697,261.1797 Q367.0947,261.1797 367.6885,260.9141 Q368.2822,260.6328 368.9072,260.0547 L368.9072,262.7734 Z " fill="#000000"/><text fill="#000000" font-family="sans-serif" font-size="12" font-style="italic" lengthAdjust="spacing" textLength="54.1348" x="448.6655" y="253.1387">&#171;sealed&#187;</text><text fill="#000000" font-family="sans-serif" font-size="14" lengthAdjust="spacing" textLength="178.5889" x="386.4385" y="268.9639">QueuedWikipediaHandler</text><line style="stroke:#181818;stroke-width:0.5;" x1="10" x2="908.9658" y1="277.2656" y2="277.2656"/><g data-visibility-modifier="PUBLIC_FIELD"><ellipse cx="20" cy="290.9141" fill="none" rx="3" ry="3" style="stroke:#038048;stroke-width:1;"/></g><text fill="#000000" font-family="sans-serif" font-size="14" lengthAdjust="spacing" textLength="208.0654" x="29" y="294.2607">PendingResponses : int &#171;get&#187;</text><line style="stroke:#181818;stroke-width:0.5;" x1="10" x2="908.9658" y1="301.5625" y2="301.5625"/><g data-visibility-modifier="PUBLIC_METHOD"><ellipse cx="20" cy="315.2109" fill="#84BE84" rx="3" ry="3" style="stroke:#038048;stroke-width:1;"/></g><text fill="#000000" font-family="sans-serif" font-size="14" lengthAdjust="spacing" textLength="378.9775" x="29" y="318.5576">Enqueue(expectedQueryPart:string, json:string) : void</text><g data-visibility-modifier="PROTECTED_METHOD"><polygon fill="#FFFF44" points="20,326.5078,24,330.5078,20,334.5078,16,330.5078" style="stroke:#B38D22;stroke-width:1;"/></g><text fill="#000000" font-family="sans-serif" font-size="14" lengthAdjust="spacing" textLength="874.9658" x="29" y="334.8545">&#171;override&#187; SendAsync(request:HttpRequestMessage, cancellationToken:CancellationToken) : Task&lt;HttpResponseMessage&gt;</text></g><!--class TempSqliteConnectionFactory--><g class="entity" data-qualified-name="TempSqliteConnectionFactory" data-source-line="15" id="ent0004"><rect fill="#F1F1F1" height="105.1563" rx="2.5" ry="2.5" style="stroke:#181818;stroke-width:0.5;" width="286.0186" x="1262.5" y="237"/><ellipse cx="1296.8654" cy="257.1328" fill="#ADD1B2" rx="11" ry="11" style="stroke:#181818;stroke-width:1;"/><path d="M1299.8341,262.7734 Q1299.256,263.0703 1298.6154,263.2109 Q1297.9748,263.3672 1297.2716,263.3672 Q1294.7716,263.3672 1293.4435,261.7266 Q1292.131,260.0703 1292.131,256.9453 Q1292.131,253.8203 1293.4435,252.1641 Q1294.7716,250.5078 1297.2716,250.5078 Q1297.9748,250.5078 1298.6154,250.6641 Q1299.2716,250.8203 1299.8341,251.1172 L1299.8341,253.8359 Q1299.2091,253.2578 1298.6154,252.9922 Q1298.0216,252.7109 1297.3966,252.7109 Q1296.0529,252.7109 1295.3654,253.7891 Q1294.6779,254.8516 1294.6779,256.9453 Q1294.6779,259.0391 1295.3654,260.1172 Q1296.0529,261.1797 1297.3966,261.1797 Q1298.0216,261.1797 1298.6154,260.9141 Q1299.2091,260.6328 1299.8341,260.0547 L1299.8341,262.7734 Z " fill="#000000"/><text fill="#000000" font-family="sans-serif" font-size="12" font-style="italic" lengthAdjust="spacing" textLength="54.1348" x="1393.5936" y="253.1387">&#171;sealed&#187;</text><text fill="#000000" font-family="sans-serif" font-size="14" lengthAdjust="spacing" textLength="210.9844" x="1315.1688" y="268.9639">TempSqliteConnectionFactory</text><line style="stroke:#181818;stroke-width:0.5;" x1="1263.5" x2="1547.5186" y1="277.2656" y2="277.2656"/><g data-visibility-modifier="PRIVATE_FIELD"><rect fill="none" height="6" style="stroke:#C82930;stroke-width:1;" width="6" x="1270.5" y="287.9141"/></g><text fill="#000000" font-family="sans-serif" font-size="14" lengthAdjust="spacing" textLength="240.126" x="1282.5" y="294.2607">&#171;readonly&#187; _databasePath : string</text><line style="stroke:#181818;stroke-width:0.5;" x1="1263.5" x2="1547.5186" y1="301.5625" y2="301.5625"/><g data-visibility-modifier="PUBLIC_METHOD"><ellipse cx="1273.5" cy="315.2109" fill="#84BE84" rx="3" ry="3" style="stroke:#038048;stroke-width:1;"/></g><text fill="#000000" font-family="sans-serif" font-size="14" lengthAdjust="spacing" textLength="260.0186" x="1282.5" y="318.5576">OpenConnection() : SqliteConnection</text><g data-visibility-modifier="PUBLIC_METHOD"><ellipse cx="1273.5" cy="331.5078" fill="#84BE84" rx="3" ry="3" style="stroke:#038048;stroke-width:1;"/></g><text fill="#000000" font-family="sans-serif" font-size="14" lengthAdjust="spacing" textLength="109.4912" x="1282.5" y="334.8545">Dispose() : void</text></g><!--class Queue`1--><g class="entity" data-qualified-name="Queue.1" data-source-line="20" id="ent0005"><rect fill="#F1F1F1" height="48" rx="2.5" ry="2.5" style="stroke:#181818;stroke-width:0.5;" width="105.2295" x="947" y="265.5"/><ellipse cx="962" cy="281.5" fill="#ADD1B2" rx="11" ry="11" style="stroke:#181818;stroke-width:1;"/><path d="M964.9688,287.1406 Q964.3906,287.4375 963.75,287.5781 Q963.1094,287.7344 962.4063,287.7344 Q959.9063,287.7344 958.5781,286.0938 Q957.2656,284.4375 957.2656,281.3125 Q957.2656,278.1875 958.5781,276.5313 Q959.9063,274.875 962.4063,274.875 Q963.1094,274.875 963.75,275.0313 Q964.4063,275.1875 964.9688,275.4844 L964.9688,278.2031 Q964.3438,277.625 963.75,277.3594 Q963.1563,277.0781 962.5313,277.0781 Q961.1875,277.0781 960.5,278.1563 Q959.8125,279.2188 959.8125,281.3125 Q959.8125,283.4063 960.5,284.4844 Q961.1875,285.5469 962.5313,285.5469 Q963.1563,285.5469 963.75,285.2813 Q964.3438,285 964.9688,284.4219 L964.9688,287.1406 Z " fill="#000000"/><text fill="#000000" font-family="sans-serif" font-size="14" lengthAdjust="spacing" textLength="61.8994" x="976" y="286.3467">Queue`1</text><rect fill="#FFFFFF" height="15.9688" style="stroke:#181818;stroke-width:1;stroke-dasharray:2,2;" width="9.3301" x="1045.8994" y="262.5"/><text fill="#000000" font-family="sans-serif" font-size="12" font-style="italic" lengthAdjust="spacing" textLength="7.3301" x="1046.8994" y="274.6387">T</text><line style="stroke:#181818;stroke-width:0.5;" x1="948" x2="1051.2295" y1="297.5" y2="297.5"/><line style="stroke:#181818;stroke-width:0.5;" x1="948" x2="1051.2295" y1="305.5" y2="305.5"/></g><!--class HttpMessageHandler--><g class="entity" data-qualified-name="HttpMessageHandler" data-source-line="23" id="ent0007"><rect fill="#F1F1F1" height="48" rx="2.5" ry="2.5" style="stroke:#181818;stroke-width:0.5;" width="178.877" x="196" y="68"/><ellipse cx="211" cy="84" fill="#ADD1B2" rx="11" ry="11" style="stroke:#181818;stroke-width:1;"/><path d="M213.9688,89.6406 Q213.3906,89.9375 212.75,90.0781 Q212.1094,90.2344 211.4063,90.2344 Q208.9063,90.2344 207.5781,88.5938 Q206.2656,86.9375 206.2656,83.8125 Q206.2656,80.6875 207.5781,79.0313 Q208.9063,77.375 211.4063,77.375 Q212.1094,77.375 212.75,77.5313 Q213.4063,77.6875 213.9688,77.9844 L213.9688,80.7031 Q213.3438,80.125 212.75,79.8594 Q212.1563,79.5781 211.5313,79.5781 Q210.1875,79.5781 209.5,80.6563 Q208.8125,81.7188 208.8125,83.8125 Q208.8125,85.9063 209.5,86.9844 Q210.1875,88.0469 211.5313,88.0469 Q212.1563,88.0469 212.75,87.7813 Q213.3438,87.5 213.9688,86.9219 L213.9688,89.6406 Z " fill="#000000"/><text fill="#000000" font-family="sans-serif" font-size="14" lengthAdjust="spacing" textLength="146.877" x="225" y="88.8467">HttpMessageHandler</text><line style="stroke:#181818;stroke-width:0.5;" x1="197" x2="373.877" y1="100" y2="100"/><line style="stroke:#181818;stroke-width:0.5;" x1="197" x2="373.877" y1="108" y2="108"/></g><!--class ISqliteConnectionFactory--><g class="entity" data-qualified-name="ISqliteConnectionFactory" data-source-line="26" id="ent0011"><rect fill="#F1F1F1" height="48" rx="2.5" ry="2.5" style="stroke:#181818;stroke-width:0.5;" width="207.4238" x="1302" y="68"/><ellipse cx="1317" cy="84" fill="#ADD1B2" rx="11" ry="11" style="stroke:#181818;stroke-width:1;"/><path d="M1319.9688,89.6406 Q1319.3906,89.9375 1318.75,90.0781 Q1318.1094,90.2344 1317.4063,90.2344 Q1314.9063,90.2344 1313.5781,88.5938 Q1312.2656,86.9375 1312.2656,83.8125 Q1312.2656,80.6875 1313.5781,79.0313 Q1314.9063,77.375 1317.4063,77.375 Q1318.1094,77.375 1318.75,77.5313 Q1319.4063,77.6875 1319.9688,77.9844 L1319.9688,80.7031 Q1319.3438,80.125 1318.75,79.8594 Q1318.1563,79.5781 1317.5313,79.5781 Q1316.1875,79.5781 1315.5,80.6563 Q1314.8125,81.7188 1314.8125,83.8125 Q1314.8125,85.9063 1315.5,86.9844 Q1316.1875,88.0469 1317.5313,88.0469 Q1318.1563,88.0469 1318.75,87.7813 Q1319.3438,87.5 1319.9688,86.9219 L1319.9688,89.6406 Z " fill="#000000"/><text fill="#000000" font-family="sans-serif" font-size="14" lengthAdjust="spacing" textLength="175.4238" x="1331" y="88.8467">ISqliteConnectionFactory</text><line style="stroke:#181818;stroke-width:0.5;" x1="1303" x2="1508.4238" y1="100" y2="100"/><line style="stroke:#181818;stroke-width:0.5;" x1="1303" x2="1508.4238" y1="108" y2="108"/></g><!--class IDisposable--><g class="entity" data-qualified-name="IDisposable" data-source-line="27" id="ent0013"><rect fill="#F1F1F1" height="48" rx="2.5" ry="2.5" style="stroke:#181818;stroke-width:0.5;" width="112.8076" x="1546" y="68"/><ellipse cx="1561" cy="84" fill="#ADD1B2" rx="11" ry="11" style="stroke:#181818;stroke-width:1;"/><path d="M1563.9688,89.6406 Q1563.3906,89.9375 1562.75,90.0781 Q1562.1094,90.2344 1561.4063,90.2344 Q1558.9063,90.2344 1557.5781,88.5938 Q1556.2656,86.9375 1556.2656,83.8125 Q1556.2656,80.6875 1557.5781,79.0313 Q1558.9063,77.375 1561.4063,77.375 Q1562.1094,77.375 1562.75,77.5313 Q1563.4063,77.6875 1563.9688,77.9844 L1563.9688,80.7031 Q1563.3438,80.125 1562.75,79.8594 Q1562.1563,79.5781 1561.5313,79.5781 Q1560.1875,79.5781 1559.5,80.6563 Q1558.8125,81.7188 1558.8125,83.8125 Q1558.8125,85.9063 1559.5,86.9844 Q1560.1875,88.0469 1561.5313,88.0469 Q1562.1563,88.0469 1562.75,87.7813 Q1563.3438,87.5 1563.9688,86.9219 L1563.9688,89.6406 Z " fill="#000000"/><text fill="#000000" font-family="sans-serif" font-size="14" lengthAdjust="spacing" textLength="80.8076" x="1575" y="88.8467">IDisposable</text><line style="stroke:#181818;stroke-width:0.5;" x1="1547" x2="1657.8076" y1="100" y2="100"/><line style="stroke:#181818;stroke-width:0.5;" x1="1547" x2="1657.8076" y1="108" y2="108"/></g><!--reverse link WikipediaCitationTests to QueuedWikipediaHandler--><g class="link" data-entity-1="ent0002" data-entity-2="ent0003" data-link-type="nested" data-source-line="22" id="lnk6"><path codeLine="22" d="M661.351,184.3762 C621.831,204.7662 594.95,218.63 559.34,237" fill="none" id="WikipediaCitationTests-backto-QueuedWikipediaHandler" style="stroke:#181818;stroke-width:1;"/><ellipse cx="668.4605" cy="180.7081" fill="#FFFFFF" rx="8" ry="8" style="stroke:#181818;stroke-width:1;"/><line style="stroke:#181818;stroke-width:1;" x1="661.351" x2="675.57" y1="184.3762" y2="177.04"/><line style="stroke:#181818;stroke-width:1;" x1="664.7924" x2="672.1286" y1="173.5986" y2="187.8176"/></g><!--reverse link HttpMessageHandler to QueuedWikipediaHandler--><g class="link" data-entity-1="ent0007" data-entity-2="ent0003" data-link-type="extension" data-source-line="23" id="lnk8"><path codeLine="23" d="M318.1067,129.6361 C344.3967,159.1761 378.61,197.62 413.45,236.76" fill="none" id="HttpMessageHandler-backto-QueuedWikipediaHandler" style="stroke:#181818;stroke-width:1;"/><polygon fill="none" points="306.14,116.19,313.6247,133.625,322.5888,125.6472,306.14,116.19" style="stroke:#181818;stroke-width:1;"/></g><!--link QueuedWikipediaHandler to Queue`1--><g class="link" data-entity-1="ent0003" data-entity-2="ent0005" data-link-type="aggregation" data-source-line="24" id="lnk9"><path codeLine="24" d="M922.12,289.5 C934.34,289.5 928.56,289.5 940.78,289.5" fill="none" id="QueuedWikipediaHandler-Queue`1" style="stroke:#181818;stroke-width:1;"/><polygon fill="none" points="910.12,289.5,916.12,293.5,922.12,289.5,916.12,285.5,910.12,289.5" style="stroke:#181818;stroke-width:1;"/><polygon fill="#181818" points="946.78,289.5,937.78,285.5,941.78,289.5,937.78,293.5,946.78,289.5" style="stroke:#181818;stroke-width:1;"/><text fill="#000000" font-family="sans-serif" font-size="13" lengthAdjust="spacing" textLength="348.9053" x="1060.7631" y="268.8167">_responses&lt;(string ExpectedQueryPart, string Json)&gt;</text></g><!--reverse link WikipediaCitationTests to TempSqliteConnectionFactory--><g class="link" data-entity-1="ent0002" data-entity-2="ent0004" data-link-type="nested" data-source-line="25" id="lnk10"><path codeLine="25" d="M1097.3756,182.2568 C1158.7556,203.4268 1207.55,220.25 1262.18,239.08" fill="none" id="WikipediaCitationTests-backto-TempSqliteConnectionFactory" style="stroke:#181818;stroke-width:1;"/><ellipse cx="1089.8128" cy="179.6484" fill="#FFFFFF" rx="8" ry="8" style="stroke:#181818;stroke-width:1;"/><line style="stroke:#181818;stroke-width:1;" x1="1097.3756" x2="1082.25" y1="182.2568" y2="177.04"/><line style="stroke:#181818;stroke-width:1;" x1="1087.2044" x2="1092.4212" y1="187.2112" y2="172.0856"/></g><!--reverse link ISqliteConnectionFactory to TempSqliteConnectionFactory--><g class="link" data-entity-1="ent0011" data-entity-2="ent0004" data-link-type="extension" data-source-line="26" id="lnk12"><path codeLine="26" d="M1405.5,134.19 C1405.5,163.73 1405.5,197.62 1405.5,236.76" fill="none" id="ISqliteConnectionFactory-backto-TempSqliteConnectionFactory" style="stroke:#181818;stroke-width:1;"/><polygon fill="none" points="1405.5,116.19,1399.5,134.19,1411.5,134.19,1405.5,116.19" style="stroke:#181818;stroke-width:1;"/></g><!--reverse link IDisposable to TempSqliteConnectionFactory--><g class="link" data-entity-1="ent0013" data-entity-2="ent0004" data-link-type="extension" data-source-line="27" id="lnk14"><path codeLine="27" d="M1571.3136,129.6776 C1556.5136,146.8876 1547.15,157.12 1527.5,177 C1507.53,197.2 1484.76,218.46 1464.34,236.92" fill="none" id="IDisposable-backto-TempSqliteConnectionFactory" style="stroke:#181818;stroke-width:1;"/><polygon fill="none" points="1583.05,116.03,1566.7644,125.7654,1575.8628,133.5897,1583.05,116.03" style="stroke:#181818;stroke-width:1;"/></g><?plantuml-src XLHDRnen4BtpAonw8GeSUaLe9GBve2M51geSwSIUW8knDvu11INyzzYx2pI4XRtiQZH-xysRvvK6YCIZdkiKbOQEPc3jx1Y9IRHQX61G9ObuguZmN8OIqDhAK6ahrVQifS5sh4pw3XGDlLka_806Ls1vX3A2qHMkdLNZ6HO71YbQRQUr2z4KOw3vMUp76Te_tlGY_aehL9EVY2brDSabKQ3ee6Nqg0PsF0FkQpil1xz5_WG-Gl1oXZJmUgejc7o6IDdMVUVcotHem7QzVcOwHBrQQgEsfj6awv1-EUxPLT1pus6wY6_dRz6Y1qQrTIJ3MJcjCfo6UAC88JSvu0YpeKReLrfYRGPM6VJDtqjSejhjwYulruK2XYSWR8vnaOvUZ6RiE6jpgXkGxFmwyiMJdw4FsQ_jI-Iubye58nGLFfrLyAmzyVLh6YXHXIQ_7eBd9h4FQouRjV3Y1pbROtpzlpt_gcmgCeldSTfZyHoYLU7a0r8QN4OAMDfow9mY9qdHL4nPmnB1TV4lQ3gc_bj0SYlqFcGmi8u2MvQXciS0IToyOquVyk_xu3HCiIuaM8d6vFVApT4sEuULRQfQ-VbSV06Gx6muiTwlNZH2oIE4HPfrA4ws8Ha2p_OEvuR4-xY7pB9vo5DqXXkNEi9zVBVQgjcE_dwljiPHmQPIyakvR3HArbc9inSpxpRyNjvU4WhNI4HruhS1QDNoISMNTDOB3qGCu4LItOzmIlk97LHwfSjvFtSoznMU39vj_W00?></g></svg>