<?plantuml 1.2026.2?><svg xmlns="http://www.w3.org/2000/svg" xmlns:xlink="http://www.w3.org/1999/xlink" contentStyleType="text/css" data-diagram-type="CLASS" height="105px" preserveAspectRatio="none" style="width:361px;height:105px;background:#F9F9F9;" version="1.1" viewBox="0 0 361 105" width="361px" zoomAndPan="magnify"><defs/><g><rect fill="#F9F9F9" height="105" style="stroke:none;stroke-width:1;" width="361" x="0" y="0"/><!--class HealthController--><g class="entity" data-qualified-name="HealthController" data-source-line="20" id="ent0002"><rect fill="#F1F1F1" height="91.25" rx="3" ry="3" style="stroke:#181818;stroke-width:0.5;" width="144.4736" x="210" y="7"/><ellipse cx="229.4013" cy="36.2227" fill="#ADD1B2" rx="10" ry="10" style="stroke:#181818;stroke-width:1;"/><path d="M231.2294,40.4727 Q230.8232,40.6758 230.3701,40.7852 Q229.9169,40.8945 229.4326,40.8945 Q227.6513,40.8945 226.7138,39.7383 Q225.7919,38.5664 225.7919,36.3633 Q225.7919,34.1445 226.7138,32.9883 Q227.6513,31.8164 229.4326,31.8164 Q229.9169,31.8164 230.3701,31.9258 Q230.8388,32.0195 231.2294,32.2383 L231.2294,34.1602 Q230.7919,33.7539 230.3701,33.5664 Q229.9482,33.3633 229.5107,33.3633 Q228.5576,33.3633 228.0732,34.1289 Q227.5888,34.8789 227.5888,36.3633 Q227.5888,37.832 228.0732,38.582 Q228.5576,39.332 229.5107,39.332 Q229.9482,39.332 230.3701,39.1445 Q230.7919,38.957 231.2294,38.5508 L231.2294,40.4727 Z " fill="#000000"/><text fill="#000000" font-family="sans-serif" font-size="10" font-style="italic" lengthAdjust="spacing" textLength="45.1123" x="272.2808" y="27.2822">&#171;sealed&#187;</text><text fill="#000000" font-family="sans-serif" font-size="11" lengthAdjust="spacing" textLength="90.4707" x="249.6016" y="51.8511">HealthController</text><line style="stroke:#181818;stroke-width:0.5;" x1="211" x2="353.4736" y1="65.4453" y2="65.4453"/><text fill="#000000" font-family="sans-serif" font-size="11" lengthAdjust="spacing" textLength="37.4043" x="222" y="85.6558">+Get()</text><text fill="#000000" font-family="sans-serif" font-size="11" lengthAdjust="spacing" textLength="3.4966" x="259.4043" y="85.6558">&#160;</text><text fill="#000000" font-family="sans-serif" font-size="11" lengthAdjust="spacing" textLength="3.7061" x="262.9009" y="85.6558">:</text><text fill="#000000" font-family="sans-serif" font-size="11" lengthAdjust="spacing" textLength="3.4966" x="266.6069" y="85.6558">&#160;</text><text fill="#000000" font-family="sans-serif" font-size="11" lengthAdjust="spacing" textLength="72.3701" x="270.1035" y="85.6558">IActionResult</text></g><!--class ControllerBase--><g class="entity" data-qualified-name="ControllerBase" data-source-line="23" id="ent0003"><rect fill="#F1F1F1" height="34.8047" rx="3" ry="3" style="stroke:#181818;stroke-width:0.5;" width="123.1357" x="7" y="35"/><ellipse cx="21" cy="52.4023" fill="#ADD1B2" rx="10" ry="10" style="stroke:#181818;stroke-width:1;"/><path d="M22.8281,56.6523 Q22.4219,56.8555 21.9688,56.9648 Q21.5156,57.0742 21.0313,57.0742 Q19.25,57.0742 18.3125,55.918 Q17.3906,54.7461 17.3906,52.543 Q17.3906,50.3242 18.3125,49.168 Q19.25,47.9961 21.0313,47.9961 Q21.5156,47.9961 21.9688,48.1055 Q22.4375,48.1992 22.8281,48.418 L22.8281,50.3398 Q22.3906,49.9336 21.9688,49.7461 Q21.5469,49.543 21.1094,49.543 Q20.1563,49.543 19.6719,50.3086 Q19.1875,51.0586 19.1875,52.543 Q19.1875,54.0117 19.6719,54.7617 Q20.1563,55.5117 21.1094,55.5117 Q21.5469,55.5117 21.9688,55.3242 Q22.3906,55.1367 22.8281,54.7305 L22.8281,56.6523 Z " fill="#000000"/><text fill="#000000" font-family="sans-serif" font-size="11" lengthAdjust="spacing" textLength="81.1357" x="40" y="56.2104">ControllerBase</text></g><!--reverse link ControllerBase to HealthController--><g class="link" data-entity-1="ent0003" data-entity-2="ent0002" data-link-type="extension" data-source-line="23" id="lnk4"><path codeLine="23" d="M148.25,52.5 C173.13,52.5 184,52.5 209.83,52.5" fill="none" id="ControllerBase-backto-HealthController" style="stroke:#191919;stroke-width:1;"/><polygon fill="none" points="130.25,52.5,148.25,58.5,148.25,46.5,130.25,52.5" style="stroke:#191919;stroke-width:1;"/></g><?plantuml-src RP5DJm8n48Rl_HNZ2J-20HGaXf0Wn8-h73WFsrdQq6qtqzaWgF_TBXSgsjFaVPzvsyvqL0SM96WTQQY9ksMgmE4-D09bO321xI5uGGUnMMkB6yOAcBmcZhVgGWnL11LoLB50rvOVqEyDxgyVHcFbg1IG06mtHa1Rfa9iy2fkhQ-nJNBMa-nhWi1YGcP4WphihDz0YIvIvd1el9u7ziGmodNqsqWrZ7kPw8EcLXpcOerQjybvzugnNbaj1eQ3d5rGYOsJvpI3fJqGz0UPENSOuycwExTc8cpNZT29wPypIo6cqCxW1EKFc367tVzMyUkEjoBu8zDJnce2gchPGqNLEgrA7Lbu9NHYvYcDWtDfW9D9J1BfwHG-5QHp0oyabrVm26-puxBUAQR_gszrwdh2I33vwdR_vFq0?></g></svg>