<?xml version="1.0" encoding="UTF-8" standalone="no"?><svg xmlns="http://www.w3.org/2000/svg" xmlns:xlink="http://www.w3.org/1999/xlink" contentScriptType="application/ecmascript" contentStyleType="text/css" height="379px" preserveAspectRatio="none" style="width:886px;height:379px;" version="1.1" viewBox="0 0 886 379" width="886px" zoomAndPan="magnify"><defs><filter height="300%" id="fbukac09wf9mt" width="300%" x="-1" y="-1"><feGaussianBlur result="blurOut" stdDeviation="2.0"/><feColorMatrix in="blurOut" result="blurOut2" type="matrix" values="0 0 0 0 0 0 0 0 0 0 0 0 0 0 0 0 0 0 .4 0"/><feOffset dx="4.0" dy="4.0" in="blurOut2" result="blurOut3"/><feBlend in="SourceGraphic" in2="blurOut3" mode="normal"/></filter></defs><g><!--MD5=[987dd398fbf6eba89c76602309fdd264]
class SessionController--><rect fill="#FEFECE" filter="url(#fbukac09wf9mt)" height="143.5703" id="SessionController" style="stroke: #A80036; stroke-width: 1.5;" width="869" x="6" y="116"/><ellipse cx="381.25" cy="134.9688" fill="#ADD1B2" rx="11" ry="11" style="stroke: #A80036; stroke-width: 1.0;"/><path d="M384.2188,140.6094 Q383.6406,140.9063 383,141.0469 Q382.3594,141.2031 381.6563,141.2031 Q379.1563,141.2031 377.8281,139.5625 Q376.5156,137.9063 376.5156,134.7813 Q376.5156,131.6563 377.8281,130 Q379.1563,128.3438 381.6563,128.3438 Q382.3594,128.3438 383,128.5 Q383.6563,128.6563 384.2188,128.9531 L384.2188,131.6719 Q383.5938,131.0938 383,130.8281 Q382.4063,130.5469 381.7813,130.5469 Q380.4375,130.5469 379.75,131.625 Q379.0625,132.6875 379.0625,134.7813 Q379.0625,136.875 379.75,137.9531 Q380.4375,139.0156 381.7813,139.0156 Q382.4063,139.0156 383,138.75 Q383.5938,138.4688 384.2188,137.8906 L384.2188,140.6094 Z "/><text fill="#000000" font-family="sans-serif" font-size="12" font-style="italic" lengthAdjust="spacingAndGlyphs" textLength="55" x="429.25" y="132.1387">«sealed»</text><text fill="#000000" font-family="sans-serif" font-size="12" lengthAdjust="spacingAndGlyphs" textLength="110" x="401.75" y="146.1074">SessionController</text><line style="stroke: #A80036; stroke-width: 1.5;" x1="7" x2="874" y1="153.9375" y2="153.9375"/><line style="stroke: #A80036; stroke-width: 1.5;" x1="7" x2="874" y1="161.9375" y2="161.9375"/><ellipse cx="17" cy="172.9375" fill="#84BE84" rx="3" ry="3" style="stroke: #038048; stroke-width: 1.0;"/><text fill="#000000" font-family="sans-serif" font-size="11" lengthAdjust="spacingAndGlyphs" textLength="587" x="26" y="176.1479">SessionController(sessionRepository:SqliteSessionRepository, wikiSessionService:WikiSessionService)</text><ellipse cx="17" cy="185.7422" fill="#84BE84" rx="3" ry="3" style="stroke: #038048; stroke-width: 1.0;"/><text fill="#000000" font-family="sans-serif" font-size="11" lengthAdjust="spacingAndGlyphs" textLength="375" x="26" y="188.9526">GetSessions() : ActionResult&lt;IReadOnlyList&lt;SessionSummary&gt;&gt;</text><ellipse cx="17" cy="198.5469" fill="#84BE84" rx="3" ry="3" style="stroke: #038048; stroke-width: 1.0;"/><text fill="#000000" font-family="sans-serif" font-size="11" lengthAdjust="spacingAndGlyphs" textLength="460" x="26" y="201.7573">CreateSession(input:CreateSessionRequest?) : ActionResult&lt;SessionSummary&gt;</text><ellipse cx="17" cy="211.3516" fill="#84BE84" rx="3" ry="3" style="stroke: #038048; stroke-width: 1.0;"/><text fill="#000000" font-family="sans-serif" font-size="11" lengthAdjust="spacingAndGlyphs" textLength="843" x="26" y="214.562">«async» AddArticle(sessionId:string, request:AddWikiArticleRequest, cancellationToken:CancellationToken) : Task&lt;ActionResult&lt;SessionDetailDto&gt;&gt;</text><ellipse cx="17" cy="224.1563" fill="#84BE84" rx="3" ry="3" style="stroke: #038048; stroke-width: 1.0;"/><text fill="#000000" font-family="sans-serif" font-size="11" lengthAdjust="spacingAndGlyphs" textLength="220" x="26" y="227.3667">Delete(sessionId:string) : IActionResult</text><ellipse cx="17" cy="236.9609" fill="#84BE84" rx="3" ry="3" style="stroke: #038048; stroke-width: 1.0;"/><text fill="#000000" font-family="sans-serif" font-size="11" lengthAdjust="spacingAndGlyphs" textLength="362" x="26" y="240.1714">GetSession(sessionId:string) : ActionResult&lt;SessionDetailDto&gt;</text><ellipse cx="17" cy="249.7656" fill="#84BE84" rx="3" ry="3" style="stroke: #038048; stroke-width: 1.0;"/><text fill="#000000" font-family="sans-serif" font-size="11" lengthAdjust="spacingAndGlyphs" textLength="409" x="26" y="252.9761">GetGraphs(sessionId:string) : ActionResult&lt;IReadOnlyList&lt;GraphDto&gt;&gt;</text><!--MD5=[4867a1bb6ec1ef487bf262ea43213ad2]
class ControllerBase--><rect fill="#FEFECE" filter="url(#fbukac09wf9mt)" height="48" id="ControllerBase" style="stroke: #A80036; stroke-width: 1.5;" width="124" x="378.5" y="8"/><ellipse cx="393.5" cy="24" fill="#ADD1B2" rx="11" ry="11" style="stroke: #A80036; stroke-width: 1.0;"/><path d="M396.4688,29.6406 Q395.8906,29.9375 395.25,30.0781 Q394.6094,30.2344 393.9063,30.2344 Q391.4063,30.2344 390.0781,28.5938 Q388.7656,26.9375 388.7656,23.8125 Q388.7656,20.6875 390.0781,19.0313 Q391.4063,17.375 393.9063,17.375 Q394.6094,17.375 395.25,17.5313 Q395.9063,17.6875 396.4688,17.9844 L396.4688,20.7031 Q395.8438,20.125 395.25,19.8594 Q394.6563,19.5781 394.0313,19.5781 Q392.6875,19.5781 392,20.6563 Q391.3125,21.7188 391.3125,23.8125 Q391.3125,25.9063 392,26.9844 Q392.6875,28.0469 394.0313,28.0469 Q394.6563,28.0469 395.25,27.7813 Q395.8438,27.5 396.4688,26.9219 L396.4688,29.6406 Z "/><text fill="#000000" font-family="sans-serif" font-size="12" lengthAdjust="spacingAndGlyphs" textLength="92" x="407.5" y="28.1543">ControllerBase</text><line style="stroke: #A80036; stroke-width: 1.5;" x1="379.5" x2="501.5" y1="40" y2="40"/><line style="stroke: #A80036; stroke-width: 1.5;" x1="379.5" x2="501.5" y1="48" y2="48"/><!--MD5=[37be0ecf9c3a105f36095147bbf4ccef]
class SqliteSessionRepository--><rect fill="#FEFECE" filter="url(#fbukac09wf9mt)" height="48" id="SqliteSessionRepository" style="stroke: #A80036; stroke-width: 1.5;" width="182" x="249.5" y="320"/><ellipse cx="264.5" cy="336" fill="#ADD1B2" rx="11" ry="11" style="stroke: #A80036; stroke-width: 1.0;"/><path d="M267.4688,341.6406 Q266.8906,341.9375 266.25,342.0781 Q265.6094,342.2344 264.9063,342.2344 Q262.4063,342.2344 261.0781,340.5938 Q259.7656,338.9375 259.7656,335.8125 Q259.7656,332.6875 261.0781,331.0313 Q262.4063,329.375 264.9063,329.375 Q265.6094,329.375 266.25,329.5313 Q266.9063,329.6875 267.4688,329.9844 L267.4688,332.7031 Q266.8438,332.125 266.25,331.8594 Q265.6563,331.5781 265.0313,331.5781 Q263.6875,331.5781 263,332.6563 Q262.3125,333.7188 262.3125,335.8125 Q262.3125,337.9063 263,338.9844 Q263.6875,340.0469 265.0313,340.0469 Q265.6563,340.0469 266.25,339.7813 Q266.8438,339.5 267.4688,338.9219 L267.4688,341.6406 Z "/><text fill="#000000" font-family="sans-serif" font-size="12" lengthAdjust="spacingAndGlyphs" textLength="150" x="278.5" y="340.1543">SqliteSessionRepository</text><line style="stroke: #A80036; stroke-width: 1.5;" x1="250.5" x2="430.5" y1="352" y2="352"/><line style="stroke: #A80036; stroke-width: 1.5;" x1="250.5" x2="430.5" y1="360" y2="360"/><!--MD5=[5753c549825c3b2dc553da653bb45dea]
class WikiSessionService--><rect fill="#FEFECE" filter="url(#fbukac09wf9mt)" height="48" id="WikiSessionService" style="stroke: #A80036; stroke-width: 1.5;" width="150" x="466.5" y="320"/><ellipse cx="481.5" cy="336" fill="#ADD1B2" rx="11" ry="11" style="stroke: #A80036; stroke-width: 1.0;"/><path d="M484.4688,341.6406 Q483.8906,341.9375 483.25,342.0781 Q482.6094,342.2344 481.9063,342.2344 Q479.4063,342.2344 478.0781,340.5938 Q476.7656,338.9375 476.7656,335.8125 Q476.7656,332.6875 478.0781,331.0313 Q479.4063,329.375 481.9063,329.375 Q482.6094,329.375 483.25,329.5313 Q483.9063,329.6875 484.4688,329.9844 L484.4688,332.7031 Q483.8438,332.125 483.25,331.8594 Q482.6563,331.5781 482.0313,331.5781 Q480.6875,331.5781 480,332.6563 Q479.3125,333.7188 479.3125,335.8125 Q479.3125,337.9063 480,338.9844 Q480.6875,340.0469 482.0313,340.0469 Q482.6563,340.0469 483.25,339.7813 Q483.8438,339.5 484.4688,338.9219 L484.4688,341.6406 Z "/><text fill="#000000" font-family="sans-serif" font-size="12" lengthAdjust="spacingAndGlyphs" textLength="118" x="495.5" y="340.1543">WikiSessionService</text><line style="stroke: #A80036; stroke-width: 1.5;" x1="467.5" x2="615.5" y1="352" y2="352"/><line style="stroke: #A80036; stroke-width: 1.5;" x1="467.5" x2="615.5" y1="360" y2="360"/><!--MD5=[e89df4556afce2196bd315d4b908cebf]
reverse link ControllerBase to SessionController--><path d="M440.5,76.25 C440.5,88.52 440.5,102.22 440.5,115.69 " fill="none" id="ControllerBase&lt;-SessionController" style="stroke: #A80036; stroke-width: 1.0;"/><polygon fill="none" points="433.5,76.06,440.5,56.06,447.5,76.06,433.5,76.06" style="stroke: #A80036; stroke-width: 1.0;"/><!--MD5=[fe752af66e0d0815ac60103631c35e5b]
link SessionController to SqliteSessionRepository--><path d="M394.31,260.14 C381.49,279.88 368.34,300.13 358.24,315.68 " fill="none" id="SessionController-&gt;SqliteSessionRepository" style="stroke: #A80036; stroke-width: 1.0;"/><polygon fill="#A80036" points="355.48,319.93,363.7457,314.5749,358.2105,315.7414,357.0439,310.2061,355.48,319.93" style="stroke: #A80036; stroke-width: 1.0;"/><text fill="#000000" font-family="sans-serif" font-size="13" lengthAdjust="spacingAndGlyphs" textLength="122" x="221.6874" y="308.9241">_sessionRepository</text><!--MD5=[feca13513051b32757a398ce5c021b67]
link SessionController to WikiSessionService--><path d="M487.16,260.14 C500.1,279.88 513.39,300.13 523.58,315.68 " fill="none" id="SessionController-&gt;WikiSessionService" style="stroke: #A80036; stroke-width: 1.0;"/><polygon fill="#A80036" points="526.37,319.93,524.7828,310.2099,523.6295,315.7479,518.0915,314.5946,526.37,319.93" style="stroke: #A80036; stroke-width: 1.0;"/><text fill="#000000" font-family="sans-serif" font-size="13" lengthAdjust="spacingAndGlyphs" textLength="126" x="431.8554" y="308.9241">_wikiSessionService</text><!--MD5=[12d0b47ed72251c8f94643def57d96d0]
@startuml
class SessionController <<sealed>> {
    + SessionController(sessionRepository:SqliteSessionRepository, wikiSessionService:WikiSessionService)
    + GetSessions() : ActionResult<IReadOnlyList<SessionSummary>>
    + CreateSession(input:CreateSessionRequest?) : ActionResult<SessionSummary>
    + <<async>> AddArticle(sessionId:string, request:AddWikiArticleRequest, cancellationToken:CancellationToken) : Task<ActionResult<SessionDetailDto>>
    + Delete(sessionId:string) : IActionResult
    + GetSession(sessionId:string) : ActionResult<SessionDetailDto>
    + GetGraphs(sessionId:string) : ActionResult<IReadOnlyList<GraphDto>>
}
ControllerBase <|- - SessionController
SessionController - -> "_sessionRepository" SqliteSessionRepository
SessionController - -> "_wikiSessionService" WikiSessionService
@enduml

PlantUML version 1.2020.02(Sun Mar 01 02:22:07 PST 2020)
(GPL source distribution)
Java Runtime: OpenJDK Runtime Environment
JVM: OpenJDK 64-Bit Server VM
Java Version: 16.0.2+7-67
Operating System: Linux
Default Encoding: UTF-8
Language: en
Country: US
--></g></svg>