<?plantuml 1.2026.2?><svg xmlns="http://www.w3.org/2000/svg" xmlns:xlink="http://www.w3.org/1999/xlink" contentStyleType="text/css" data-diagram-type="CLASS" height="409px" preserveAspectRatio="none" style="width:513px;height:409px;background:#F9F9F9;" version="1.1" viewBox="0 0 513 409" width="513px" zoomAndPan="magnify"><defs/><g><rect fill="#F9F9F9" height="409" style="stroke:none;stroke-width:1;" width="513" x="0" y="0"/><!--class SessionMemoryDb--><g class="entity" data-qualified-name="SessionMemoryDb" data-source-line="20" id="ent0002"><rect fill="#F1F1F1" height="234.4688" rx="3" ry="3" style="stroke:#181818;stroke-width:0.5;" width="499.3174" x="7" y="7"/><ellipse cx="191.5796" cy="44.2227" fill="#ADD1B2" rx="10" ry="10" style="stroke:#181818;stroke-width:1;"/><path d="M193.4077,48.4727 Q193.0015,48.6758 192.5483,48.7852 Q192.0952,48.8945 191.6108,48.8945 Q189.8296,48.8945 188.8921,47.7383 Q187.9702,46.5664 187.9702,44.3633 Q187.9702,42.1445 188.8921,40.9883 Q189.8296,39.8164 191.6108,39.8164 Q192.0952,39.8164 192.5483,39.9258 Q193.0171,40.0195 193.4077,40.2383 L193.4077,42.1602 Q192.9702,41.7539 192.5483,41.5664 Q192.1265,41.3633 191.689,41.3633 Q190.7358,41.3633 190.2515,42.1289 Q189.7671,42.8789 189.7671,44.3633 Q189.7671,45.832 190.2515,46.582 Q190.7358,47.332 191.689,47.332 Q192.1265,47.332 192.5483,47.1445 Q192.9702,46.957 193.4077,46.5508 L193.4077,48.4727 Z " fill="#000000"/><text fill="#000000" font-family="sans-serif" font-size="10" font-style="italic" lengthAdjust="spacing" textLength="45.1123" x="249.1025" y="31.2822">&#171;sealed&#187;</text><text fill="#000000" font-family="sans-serif" font-size="11" lengthAdjust="spacing" textLength="102.1582" x="220.5796" y="63.8511">SessionMemoryDb</text><line style="stroke:#181818;stroke-width:0.5;" x1="8" x2="505.3174" y1="81.4453" y2="81.4453"/><text fill="#000000" font-family="sans-serif" font-size="11" lengthAdjust="spacing" textLength="52.4702" x="23" y="105.6558">+&#171;const&#187;</text><text fill="#000000" font-family="sans-serif" font-size="11" lengthAdjust="spacing" textLength="3.4966" x="75.4702" y="105.6558">&#160;</text><text fill="#000000" font-family="sans-serif" font-size="11" lengthAdjust="spacing" textLength="75.4907" x="78.9668" y="105.6558">DefaultUserId</text><text fill="#000000" font-family="sans-serif" font-size="11" lengthAdjust="spacing" textLength="3.4966" x="154.4575" y="105.6558">&#160;</text><text fill="#000000" font-family="sans-serif" font-size="11" lengthAdjust="spacing" textLength="3.7061" x="157.9541" y="105.6558">:</text><text fill="#000000" font-family="sans-serif" font-size="11" lengthAdjust="spacing" textLength="3.4966" x="161.6602" y="105.6558">&#160;</text><text fill="#000000" font-family="sans-serif" font-size="11" lengthAdjust="spacing" textLength="31.5767" x="165.1567" y="105.6558">string</text><text fill="#000000" font-family="sans-serif" font-size="11" lengthAdjust="spacing" textLength="3.4966" x="196.7334" y="105.6558">&#160;</text><text fill="#000000" font-family="sans-serif" font-size="11" lengthAdjust="spacing" textLength="9.2168" x="200.23" y="105.6558">=</text><text fill="#000000" font-family="sans-serif" font-size="11" lengthAdjust="spacing" textLength="3.4966" x="209.4468" y="105.6558">&#160;</text><text fill="#000000" font-family="sans-serif" font-size="11" lengthAdjust="spacing" textLength="75.8506" x="212.9434" y="105.6558">"local-device"</text><line style="stroke:#181818;stroke-width:0.5;" x1="8" x2="505.3174" y1="122.25" y2="122.25"/><text fill="#000000" font-family="sans-serif" font-size="11" lengthAdjust="spacing" textLength="363.2954" x="23" y="146.4604">+SessionMemoryDb(connectionFactory:ISqliteConnectionFactory)</text><text fill="#000000" font-family="sans-serif" font-size="11" lengthAdjust="spacing" textLength="102.8135" x="23" y="179.2651">-InitializeSchema()</text><text fill="#000000" font-family="sans-serif" font-size="11" lengthAdjust="spacing" textLength="3.4966" x="125.8135" y="179.2651">&#160;</text><text fill="#000000" font-family="sans-serif" font-size="11" lengthAdjust="spacing" textLength="3.7061" x="129.3101" y="179.2651">:</text><text fill="#000000" font-family="sans-serif" font-size="11" lengthAdjust="spacing" textLength="3.4966" x="133.0161" y="179.2651">&#160;</text><text fill="#000000" font-family="sans-serif" font-size="11" lengthAdjust="spacing" textLength="23.2783" x="136.5127" y="179.2651">void</text><text fill="#000000" font-family="sans-serif" font-size="11" lengthAdjust="spacing" text-decoration="underline" textLength="249.5088" x="23" y="212.0698">-EnsureColumn(connection:SqliteConnection,</text><text fill="#000000" font-family="sans-serif" font-size="11" lengthAdjust="spacing" text-decoration="underline" textLength="3.4966" x="272.5088" y="212.0698">&#160;</text><text fill="#000000" font-family="sans-serif" font-size="11" lengthAdjust="spacing" text-decoration="underline" textLength="99.0913" x="276.0054" y="212.0698">tableName:string,</text><text fill="#000000" font-family="sans-serif" font-size="11" lengthAdjust="spacing" text-decoration="underline" textLength="3.4966" x="375.0967" y="212.0698">&#160;</text><text fill="#000000" font-family="sans-serif" font-size="11" lengthAdjust="spacing" text-decoration="underline" textLength="111.7241" x="378.5933" y="212.0698">columnName:string,</text><text fill="#000000" font-family="sans-serif" font-size="11" lengthAdjust="spacing" text-decoration="underline" textLength="133.332" x="23" y="224.8745">columnDefinition:string)</text><text fill="#000000" font-family="sans-serif" font-size="11" lengthAdjust="spacing" text-decoration="underline" textLength="3.4966" x="156.332" y="224.8745">&#160;</text><text fill="#000000" font-family="sans-serif" font-size="11" lengthAdjust="spacing" text-decoration="underline" textLength="3.7061" x="159.8286" y="224.8745">:</text><text fill="#000000" font-family="sans-serif" font-size="11" lengthAdjust="spacing" text-decoration="underline" textLength="3.4966" x="163.5347" y="224.8745">&#160;</text><text fill="#000000" font-family="sans-serif" font-size="11" lengthAdjust="spacing" text-decoration="underline" textLength="23.2783" x="167.0313" y="224.8745">void</text></g><!--class ISqliteConnectionFactory--><g class="entity" data-qualified-name="ISqliteConnectionFactory" data-source-line="26" id="ent0003"><rect fill="#F1F1F1" height="42.8047" rx="3" ry="3" style="stroke:#181818;stroke-width:0.5;" width="187.833" x="162.5" y="361"/><ellipse cx="176.5" cy="382.4023" fill="#ADD1B2" rx="10" ry="10" style="stroke:#181818;stroke-width:1;"/><path d="M178.3281,386.6523 Q177.9219,386.8555 177.4688,386.9648 Q177.0156,387.0742 176.5313,387.0742 Q174.75,387.0742 173.8125,385.918 Q172.8906,384.7461 172.8906,382.543 Q172.8906,380.3242 173.8125,379.168 Q174.75,377.9961 176.5313,377.9961 Q177.0156,377.9961 177.4688,378.1055 Q177.9375,378.1992 178.3281,378.418 L178.3281,380.3398 Q177.8906,379.9336 177.4688,379.7461 Q177.0469,379.543 176.6094,379.543 Q175.6563,379.543 175.1719,380.3086 Q174.6875,381.0586 174.6875,382.543 Q174.6875,384.0117 175.1719,384.7617 Q175.6563,385.5117 176.6094,385.5117 Q177.0469,385.5117 177.4688,385.3242 Q177.8906,385.1367 178.3281,384.7305 L178.3281,386.6523 Z " fill="#000000"/><text fill="#000000" font-family="sans-serif" font-size="11" lengthAdjust="spacing" textLength="137.833" x="199.5" y="386.2104">ISqliteConnectionFactory</text></g><!--link SessionMemoryDb to ISqliteConnectionFactory--><g class="link" data-entity-1="ent0002" data-entity-2="ent0003" data-link-type="dependency" data-source-line="26" id="lnk4"><path codeLine="26" d="M256.5,241.15 C256.5,286.57 256.5,328 256.5,354.74" fill="none" id="SessionMemoryDb-to-ISqliteConnectionFactory" style="stroke:#191919;stroke-width:1;"/><polygon fill="#191919" points="256.5,360.74,260.5,351.74,256.5,355.74,252.5,351.74,256.5,360.74" style="stroke:#191919;stroke-width:1;"/><text fill="#000000" font-family="sans-serif" font-size="10" lengthAdjust="spacing" textLength="97.5439" x="136.0541" y="340.5025">_connectionFactory</text></g><?plantuml-src TL9DJzj04BtxLqnp0LfS9RIbLKGZeGIa7E1YLHohiNU2L-pkkBjZ84NyTyP9r1X3zxHwx-rxyx47sG4iID0wCj1Gp5Tw0uThRWLM724I6YmLIsrfBDv6z8e5Gp5zpZv8JPx0OqnPgj1rrqUOZ4--Vln--YCJRa0OIXPX3yP6giHooDAT3GrsJiu6adL3m55gxX6fHiCFDjp22bsY7XEv3MRECL24qpwEuIvH0vEJSGyDREWjsg0ndVUa3zv4R6wiaHg-lH8lQ8MjaqiEKjY_f5OzSkumfJtrPKYTYqHRja9xpMIeAOGYSJU6lQXVm7cC_F0-LRtAM5OSDffnLbj3GBwHDNZofMuhssYXe9Hq1rVaEQuN9PoT9TB5cTaCdZBGyqaXzKcYoAxrNudYqi0KaWRfs7x2oB6kEpTqRoiQxTuDh0_L9MmtVecLA3PT5d-S5PeFYQEDGmxBOCMYqnQAIdyM7Xvfw3rRi-EVag3OwXakGcgZ-hZMXrxETEX_3D9ztclqDDqMVmpLvjKxa7PhkmBKPqlyIt_EXcFByncCVh_fS0J_Q_45?></g></svg>