<?plantuml 1.2026.2?><svg xmlns="http://www.w3.org/2000/svg" xmlns:xlink="http://www.w3.org/1999/xlink" contentStyleType="text/css" data-diagram-type="CLASS" height="162px" preserveAspectRatio="none" style="width:652px;height:162px;background:#F9F9F9;" version="1.1" viewBox="0 0 652 162" width="652px" zoomAndPan="magnify"><defs/><g><rect fill="#F9F9F9" height="162" style="stroke:none;stroke-width:1;" width="652" x="0" y="0"/><!--class ISqliteConnectionFactory--><g class="entity" data-qualified-name="ISqliteConnectionFactory" data-source-line="20" id="ent0002"><rect fill="#F1F1F1" height="67.6094" rx="3" ry="3" style="stroke:#181818;stroke-width:0.5;" width="228.3003" x="7" y="47.5"/><ellipse cx="42.8103" cy="64.9023" fill="#B4A7E5" rx="10" ry="10" style="stroke:#181818;stroke-width:1;"/><path d="M39.8259,62.1836 L39.8259,60.6523 L45.029,60.6523 L45.029,62.1836 L43.2947,62.1836 L43.2947,67.8711 L45.029,67.8711 L45.029,69.4023 L39.8259,69.4023 L39.8259,67.8711 L41.5603,67.8711 L41.5603,62.1836 L39.8259,62.1836 Z " fill="#000000"/><text fill="#000000" font-family="sans-serif" font-size="11" font-style="italic" lengthAdjust="spacing" textLength="137.833" x="66.657" y="68.7104">ISqliteConnectionFactory</text><line style="stroke:#181818;stroke-width:0.5;" x1="8" x2="234.3003" y1="82.3047" y2="82.3047"/><text fill="#000000" font-family="sans-serif" font-size="11" lengthAdjust="spacing" textLength="100.2031" x="19" y="102.5151">OpenConnection()</text><text fill="#000000" font-family="sans-serif" font-size="11" lengthAdjust="spacing" textLength="3.4966" x="119.2031" y="102.5151">&#160;</text><text fill="#000000" font-family="sans-serif" font-size="11" lengthAdjust="spacing" textLength="3.7061" x="122.6997" y="102.5151">:</text><text fill="#000000" font-family="sans-serif" font-size="11" lengthAdjust="spacing" textLength="3.4966" x="126.4058" y="102.5151">&#160;</text><text fill="#000000" font-family="sans-serif" font-size="11" lengthAdjust="spacing" textLength="93.3979" x="129.9023" y="102.5151">SqliteConnection</text></g><!--class SqliteConnectionFactory--><g class="entity" data-qualified-name="SqliteConnectionFactory" data-source-line="23" id="ent0003"><rect fill="#F1F1F1" height="148.8594" rx="3" ry="3" style="stroke:#181818;stroke-width:0.5;" width="330.9043" x="315" y="7"/><ellipse cx="403.1577" cy="36.2227" fill="#ADD1B2" rx="10" ry="10" style="stroke:#181818;stroke-width:1;"/><path d="M404.9858,40.4727 Q404.5796,40.6758 404.1265,40.7852 Q403.6733,40.8945 403.189,40.8945 Q401.4077,40.8945 400.4702,39.7383 Q399.5483,38.5664 399.5483,36.3633 Q399.5483,34.1445 400.4702,32.9883 Q401.4077,31.8164 403.189,31.8164 Q403.6733,31.8164 404.1265,31.9258 Q404.5952,32.0195 404.9858,32.2383 L404.9858,34.1602 Q404.5483,33.7539 404.1265,33.5664 Q403.7046,33.3633 403.2671,33.3633 Q402.314,33.3633 401.8296,34.1289 Q401.3452,34.8789 401.3452,36.3633 Q401.3452,37.832 401.8296,38.582 Q402.314,39.332 403.2671,39.332 Q403.7046,39.332 404.1265,39.1445 Q404.5483,38.957 404.9858,38.5508 L404.9858,40.4727 Z " fill="#000000"/><text fill="#000000" font-family="sans-serif" font-size="10" font-style="italic" lengthAdjust="spacing" textLength="45.1123" x="472.896" y="27.2822">&#171;sealed&#187;</text><text fill="#000000" font-family="sans-serif" font-size="11" lengthAdjust="spacing" textLength="134.5889" x="428.1577" y="51.8511">SqliteConnectionFactory</text><line style="stroke:#181818;stroke-width:0.5;" x1="316" x2="644.9043" y1="65.4453" y2="65.4453"/><text fill="#000000" font-family="sans-serif" font-size="11" lengthAdjust="spacing" textLength="65.71" x="327" y="85.6558">-&#171;readonly&#187;</text><text fill="#000000" font-family="sans-serif" font-size="11" lengthAdjust="spacing" textLength="3.4966" x="392.71" y="85.6558">&#160;</text><text fill="#000000" font-family="sans-serif" font-size="11" lengthAdjust="spacing" textLength="98.9355" x="396.2065" y="85.6558">_connectionString</text><text fill="#000000" font-family="sans-serif" font-size="11" lengthAdjust="spacing" textLength="3.4966" x="495.1421" y="85.6558">&#160;</text><text fill="#000000" font-family="sans-serif" font-size="11" lengthAdjust="spacing" textLength="3.7061" x="498.6387" y="85.6558">:</text><text fill="#000000" font-family="sans-serif" font-size="11" lengthAdjust="spacing" textLength="3.4966" x="502.3447" y="85.6558">&#160;</text><text fill="#000000" font-family="sans-serif" font-size="11" lengthAdjust="spacing" textLength="31.5767" x="505.8413" y="85.6558">string</text><line style="stroke:#181818;stroke-width:0.5;" x1="316" x2="644.9043" y1="98.25" y2="98.25"/><text fill="#000000" font-family="sans-serif" font-size="11" lengthAdjust="spacing" textLength="306.9043" x="327" y="118.4604">+SqliteConnectionFactory(configuration:IConfiguration)</text><text fill="#000000" font-family="sans-serif" font-size="11" lengthAdjust="spacing" textLength="109.4199" x="327" y="143.2651">+OpenConnection()</text><text fill="#000000" font-family="sans-serif" font-size="11" lengthAdjust="spacing" textLength="3.4966" x="436.4199" y="143.2651">&#160;</text><text fill="#000000" font-family="sans-serif" font-size="11" lengthAdjust="spacing" textLength="3.7061" x="439.9165" y="143.2651">:</text><text fill="#000000" font-family="sans-serif" font-size="11" lengthAdjust="spacing" textLength="3.4966" x="443.6226" y="143.2651">&#160;</text><text fill="#000000" font-family="sans-serif" font-size="11" lengthAdjust="spacing" textLength="93.3979" x="447.1191" y="143.2651">SqliteConnection</text></g><!--reverse link ISqliteConnectionFactory to SqliteConnectionFactory--><g class="link" data-entity-1="ent0002" data-entity-2="ent0003" data-link-type="extension" data-source-line="28" id="lnk4"><path codeLine="28" d="M253.24,81.5 C278.53,81.5 287.82,81.5 314.7,81.5" fill="none" id="ISqliteConnectionFactory-backto-SqliteConnectionFactory" style="stroke:#191919;stroke-width:1;"/><polygon fill="none" points="235.24,81.5,253.24,87.5,253.24,75.5,235.24,81.5" style="stroke:#191919;stroke-width:1;"/></g><?plantuml-src ZL9BRzim3BxhLx2dFeOKIVfO4GG1YXG5SkeXXnuBng9Z8RBeKZGwT-r_hvm6YnOim7oYlnSbKgVc51v8qNcoq90CobI1nuvRXP85AXRtpa7HGsnNrk5Qi0QXO4dYfJdHYcg26YMQMA3lorym6ewlBtxUtXbFfO8oY5jN2jO95UeucBXneS4-oRj0sZK4B5fnHiGABR-vi8OIVQIC4Mw3dRC44hZDSGoRI0tS3JCmiAKUlCd11gtjatFtis3pxAnMS3FEjGzKOklrCSrWwTu9HkECd7kCSKzT7LBtgk9MhT9UCphKB9M4k9_1NfGVu5w4t_vD5N_rM1GSjfgXgPmbeBhH3cggLsbLneNKfyI2OB5yzKvfpY5yh-CH2sNfuBU1z3qr5FRSsJbCuD1WFissDHnBcauZfSTWPxDTw211GccZmNS9V2d-M9Rfz6aL4uZROgl-SIpuBFbAjsu5Ut2ocEU_vpll_rtWw1Ic7uF1iVvV?></g></svg>